<svg width="50" height="50" viewBox="0 0 50 50" fill="none" xmlns="http://www.w3.org/2000/svg">
<path fill-rule="evenodd" clip-rule="evenodd" d="M32 7.5H17C16.337 7.5 15.7011 7.76339 15.2322 8.23223C14.7634 8.70107 14.5 9.33696 14.5 10V40C14.5 40.663 14.7634 41.2989 15.2322 41.7678C15.7011 42.2366 16.337 42.5 17 42.5H32C32.663 42.5 33.2989 42.2366 33.7678 41.7678C34.2366 41.2989 34.5 40.663 34.5 40V10C34.5 9.33696 34.2366 8.70107 33.7678 8.23223C33.2989 7.76339 32.663 7.5 32 7.5ZM17 5C15.6739 5 14.4021 5.52678 13.4645 6.46447C12.5268 7.40215 12 8.67392 12 10V40C12 41.3261 12.5268 42.5979 13.4645 43.5355C14.4021 44.4732 15.6739 45 17 45H32C33.3261 45 34.5979 44.4732 35.5355 43.5355C36.4732 42.5979 37 41.3261 37 40V10C37 8.67392 36.4732 7.40215 35.5355 6.46447C34.5979 5.52678 33.3261 5 32 5H17ZM24.5 41.6667C24.942 41.6667 25.3659 41.4911 25.6785 41.1785C25.991 40.866 26.1666 40.442 26.1666 40C26.1666 39.558 25.991 39.134 25.6785 38.8215C25.3659 38.5089 24.942 38.3333 24.5 38.3333C24.0579 38.3333 23.634 38.5089 23.3215 38.8215C23.0089 39.134 22.8333 39.558 22.8333 40C22.8333 40.442 23.0089 40.866 23.3215 41.1785C23.634 41.4911 24.0579 41.6667 24.5 41.6667ZM17.1667 10C16.6144 10 16.1667 10.4477 16.1667 11V35.6667C16.1667 36.219 16.6144 36.6667 17.1667 36.6667H31.8334C32.3856 36.6667 32.8334 36.219 32.8334 35.6667V11C32.8334 10.4477 32.3856 10 31.8334 10H17.1667Z" fill="#22304A"/>
</svg>
