<svg width="50" height="50" viewBox="0 0 50 50" fill="none" xmlns="http://www.w3.org/2000/svg">
<path fill-rule="evenodd" clip-rule="evenodd" d="M41.3469 9.8125H7.625C6.71094 9.8125 6.21313 10.0319 5.93187 10.2203C5.62294 10.4354 5.37646 10.7285 5.2175 11.0697C4.97776 11.565 4.84003 12.1035 4.8125 12.6531V29.5C4.8125 30.4141 5.03187 30.9119 5.22031 31.1931C5.41719 31.4884 5.69844 31.7219 6.06969 31.9075C6.5437 32.1371 7.05736 32.2736 7.58281 32.3097L7.65312 32.3125H41.375C42.2891 32.3125 42.7869 32.0931 43.0681 31.9047C43.3771 31.6896 43.6235 31.3965 43.7825 31.0553C44.0121 30.5813 44.1486 30.0676 44.1847 29.5422L44.1875 29.4719V12.625C44.1875 11.7109 43.9681 11.2131 43.7797 10.9319C43.5647 10.6228 43.2716 10.3763 42.9303 10.2175C42.435 9.97776 41.8965 9.84003 41.3469 9.8125ZM41.375 7H7.625C2 7 2 12.625 2 12.625V29.5C2 35.125 7.625 35.125 7.625 35.125H18.875C18.875 37.0009 18.6416 38.4072 18.1719 39.3438H16.0625C15.6895 39.3438 15.3319 39.4919 15.0681 39.7556C14.8044 40.0194 14.6562 40.377 14.6562 40.75C14.6562 41.123 14.8044 41.4806 15.0681 41.7444C15.3319 42.0081 15.6895 42.1562 16.0625 42.1562H32.9375C33.3105 42.1562 33.6681 42.0081 33.9319 41.7444C34.1956 41.4806 34.3438 41.123 34.3438 40.75C34.3438 40.377 34.1956 40.0194 33.9319 39.7556C33.6681 39.4919 33.3105 39.3438 32.9375 39.3438H30.8281C30.3584 38.4072 30.125 37.0009 30.125 35.125H41.375C47 35.125 47 29.5 47 29.5V12.625C47 7 41.375 7 41.375 7ZM41.375 12.625H7.625V29.5H41.375V12.625Z" fill="#22304A"/>
</svg>
