<svg width="50" height="50" viewBox="0 0 50 50" fill="none" xmlns="http://www.w3.org/2000/svg">
<path fill-rule="evenodd" clip-rule="evenodd" d="M39.3182 6.5H12C11.1716 6.5 10.5 7.17157 10.5 8V42C10.5 42.8284 11.1716 43.5 12 43.5H39.3182C40.1466 43.5 40.8182 42.8284 40.8182 42V8C40.8182 7.17157 40.1466 6.5 39.3182 6.5ZM12 4C9.79086 4 8 5.79086 8 8V42C8 44.2091 9.79086 46 12 46H39.3182C41.5273 46 43.3182 44.2091 43.3182 42V8C43.3182 5.79086 41.5273 4 39.3182 4H12ZM12.7729 10.7727C12.7729 9.66814 13.6684 8.77271 14.7729 8.77271H36.5457C37.6502 8.77271 38.5457 9.66814 38.5457 10.7727V35.4091C38.5457 36.5136 37.6502 37.4091 36.5457 37.4091H14.773C13.6684 37.4091 12.7729 36.5136 12.7729 35.4091V10.7727ZM26.1361 42.1817C27.1905 42.1817 28.0452 41.327 28.0452 40.2726C28.0452 39.2183 27.1905 38.3635 26.1361 38.3635C25.0818 38.3635 24.2271 39.2183 24.2271 40.2726C24.2271 41.327 25.0818 42.1817 26.1361 42.1817Z" fill="#22304A"/>
</svg>
