<svg width="154" height="135" viewBox="0 0 154 135" fill="none" xmlns="http://www.w3.org/2000/svg">
<g filter="url(#filter0_d)">
<path fill-rule="evenodd" clip-rule="evenodd" d="M124.499 11L124.478 11.0218L124.464 11.035L124.45 11.0497L124.416 11.0836L124.376 11.1235L124.33 11.1694L124.278 11.2213L124.22 11.279L124.189 11.3101L124.157 11.3426L124.123 11.3766L124.087 11.412L124.012 11.4873L123.931 11.5682L123.889 11.6109L123.845 11.6549L123.752 11.7473L123.704 11.7956L123.654 11.8453L123.551 11.9489L123.497 12.0028L123.441 12.0581L123.327 12.1728L123.206 12.2931L123.081 12.4188L122.95 12.5499L122.813 12.6864L122.671 12.8283L122.524 12.9755L122.448 13.051L122.371 13.1279L122.293 13.2061L122.214 13.2857L122.133 13.3665L122.051 13.4486L121.883 13.6167L121.797 13.7027L121.709 13.7899L121.621 13.8785L121.531 13.9683L121.44 14.0594L121.348 14.1517L121.159 14.3402L121.063 14.4363L120.966 14.5336L120.767 14.732L120.564 14.9353L120.356 15.1435L120.143 15.3566L120.035 15.4649L119.925 15.5744L119.814 15.6851L119.702 15.7971L119.589 15.9102L119.475 16.0244L119.36 16.1399L119.243 16.2565L119.125 16.3743L119.006 16.4933L118.886 16.6134L118.765 16.7347L118.642 16.8571L118.519 16.9807L118.268 17.2312L118.013 17.4863L117.884 17.6155L117.754 17.7458L117.49 18.0098L117.356 18.1435L117.221 18.2782L117.085 18.4141L116.948 18.551L116.671 18.8282L116.531 18.9683L116.39 19.1096L116.104 19.3953L115.96 19.5398L115.814 19.6853L115.668 19.8318L115.52 19.9794L115.371 20.128L115.222 20.2777L115.071 20.4284L114.919 20.5801L114.613 20.8867L114.458 21.0414L114.302 21.1972L114.145 21.354L113.988 21.5118L113.829 21.6706L113.669 21.8304L113.508 21.9912L113.347 22.1529L113.184 22.3156L113.02 22.4793L112.69 22.8096L112.523 22.9762L112.356 23.1437L112.187 23.3122L112.018 23.4817L111.847 23.6521L111.676 23.8234L111.504 23.9956L111.331 24.1688L111.157 24.3429L110.982 24.5179L110.806 24.6938L110.629 24.8707L110.272 25.227L110.093 25.4066L109.912 25.587L109.731 25.7683L109.549 25.9505L109.366 26.1336L109.182 26.3175L108.997 26.5024L108.811 26.688L108.625 26.8746L108.437 27.062L108.249 27.2502L108.06 27.4393L107.87 27.6292L107.679 27.82L107.488 28.0116L107.295 28.204L106.908 28.5914L106.713 28.7862L106.517 28.9819L106.321 29.1784L106.124 29.3757L105.926 29.5738L105.727 29.7727L105.527 29.9724L105.327 30.1728L105.125 30.3741L104.923 30.5761L104.721 30.7789L104.517 30.9824L104.313 31.1867L104.108 31.3918L103.902 31.5976L103.695 31.8041L103.488 32.0114L103.28 32.2194L103.071 32.4282L102.862 32.6377L102.651 32.8479L102.592 32.9074C93.646 27.6471 83.6448 23.9142 73.4136 23.9142C59.7916 23.9142 46.6614 30.531 35.9047 38.5616C25.1198 46.6131 16.4811 56.2642 11.7934 62.7417L11 63.838L11.7227 64.9822C15.8387 71.4992 23.7962 81.1821 34.4022 89.2556C36.6213 90.9448 38.9637 92.569 41.418 94.0815L41.3202 94.1793L41.0682 94.4312L40.8167 94.6828L40.5655 94.9339L40.3147 95.1847L40.0643 95.4351L39.8143 95.6851L39.5647 95.9347L39.3155 96.1839L39.0667 96.4327L38.8183 96.6811L38.5704 96.929L38.0758 97.4236L37.8291 97.6703L37.5829 97.9165L37.3372 98.1623L37.0918 98.4076L36.847 98.6525L36.6026 98.8969L36.3586 99.1408L36.1151 99.3843L35.6296 99.8699L35.3875 100.112L35.1459 100.353L34.9049 100.595L34.6643 100.835L34.4242 101.075L34.1846 101.315L33.9455 101.554L33.7069 101.793L33.4689 102.031L33.2313 102.268L32.9943 102.505L32.7578 102.742L32.5219 102.978L32.2865 103.213L32.0516 103.448L31.8173 103.682L31.5835 103.916L31.3503 104.149L31.1176 104.382L30.8856 104.614L30.654 104.845L30.4231 105.076L30.1927 105.307L29.963 105.536L29.7338 105.766L29.5052 105.994L29.2772 106.222L29.0498 106.45L28.823 106.676L28.5968 106.903L28.3713 107.128L28.1463 107.353L27.922 107.577L27.6983 107.801L27.4753 108.024L27.2528 108.247L27.0311 108.468L26.8099 108.689L26.3696 109.13L26.1505 109.349L25.932 109.567L25.7141 109.785L25.497 110.002L25.2805 110.219L25.0647 110.435L24.8496 110.65L24.6352 110.864L24.4215 111.078L24.2085 111.291L23.9962 111.503L23.7846 111.715L23.3636 112.136L23.1541 112.345L22.9454 112.554L22.7375 112.762L22.5302 112.969L22.3237 113.176L22.118 113.381L21.913 113.586L21.7087 113.791L21.5053 113.994L21.3025 114.197L21.1006 114.399L20.8994 114.6L20.699 114.8L20.4994 115L23.3278 117.828L23.5275 117.629L23.7278 117.428L24.131 117.025L24.3337 116.823L24.5372 116.619L24.7414 116.415L24.9464 116.21L25.1521 116.004L25.3586 115.798L25.5659 115.59L25.7739 115.382L25.9826 115.174L26.192 114.964L26.4022 114.754L26.613 114.543L26.8246 114.332L27.0369 114.119L27.2499 113.906L27.4637 113.693L27.6781 113.478L27.8932 113.263L28.109 113.047L28.3254 112.831L28.5426 112.614L28.7604 112.396L28.9789 112.177L29.1981 111.958L29.4179 111.738L29.6384 111.518L29.8595 111.297L30.0813 111.075L30.3037 110.853L30.5267 110.63L30.7504 110.406L30.9747 110.182L31.4252 109.731L31.6514 109.505L31.8782 109.278L32.1056 109.051L32.3336 108.823L32.5622 108.594L32.7914 108.365L33.0212 108.135L33.2515 107.905L33.4825 107.674L33.714 107.442L34.1787 106.978L34.4119 106.744L34.6457 106.511L34.88 106.276L35.1149 106.041L35.3503 105.806L35.5862 105.57L35.8227 105.334L36.0597 105.097L36.5353 104.621L36.7739 104.382L37.013 104.143L37.2526 103.904L37.4927 103.664L37.7333 103.423L37.9744 103.182L38.2159 102.94L38.458 102.698L38.7005 102.456L38.9435 102.213L39.187 101.969L39.431 101.725L39.6754 101.481L39.9203 101.236L40.1656 100.991L40.4114 100.745L40.6576 100.499L40.9042 100.252L41.1513 100.005L41.3988 99.7574L41.6468 99.5095L41.8951 99.2611L42.1439 99.0124L42.3931 98.7632L42.6427 98.5136L42.8927 98.2636L43.1431 98.0132L43.3939 97.7624L43.6451 97.5112L43.8966 97.2596L44.4009 96.7554L44.6536 96.5027L44.9067 96.2496L44.9966 96.1597C53.4444 100.768 63.0534 103.914 73.4136 103.914C88.4019 103.914 101.901 97.3285 112.605 89.2614C123.313 81.191 131.395 71.5117 135.595 64.998L136.342 63.8385L135.524 62.7278C130.753 56.253 121.99 46.605 111.103 38.556C109.481 37.3569 107.806 36.1893 106.086 35.0706L106.108 35.0479L106.316 34.8398L106.524 34.6325L106.73 34.426L106.936 34.2202L107.141 34.0151L107.345 33.8108L107.549 33.6073L107.752 33.4045L107.954 33.2025L108.155 33.0013L108.355 32.8008L108.555 32.6011L108.754 32.4023L108.952 32.2042L109.149 32.0069L109.346 31.8104L109.542 31.6147L109.736 31.4198L109.931 31.2257L110.124 31.0325L110.316 30.84L110.508 30.6484L110.889 30.2677L111.078 30.0786L111.266 29.8904L111.453 29.703L111.64 29.5165L112.01 29.146L112.194 28.962L112.377 28.779L112.56 28.5968L112.741 28.4154L112.921 28.235L113.101 28.0555L113.279 27.8768L113.457 27.6991L113.634 27.5223L113.81 27.3463L113.985 27.1713L114.159 26.9972L114.332 26.824L114.504 26.6518L114.846 26.3101L115.016 26.1407L115.184 25.9722L115.352 25.8046L115.518 25.638L115.684 25.4724L115.849 25.3078L116.012 25.1441L116.175 24.9813L116.337 24.8196L116.497 24.6588L116.657 24.499L116.816 24.3402L116.974 24.1825L117.131 24.0257L117.286 23.8699L117.441 23.7151L117.595 23.5613L117.748 23.4086L117.899 23.2568L118.05 23.1061L118.2 22.9565L118.348 22.8078L118.643 22.5137L118.788 22.3682L118.933 22.2237L119.218 21.938L119.36 21.7968L119.5 21.6566L119.639 21.5175L119.777 21.3794L119.914 21.2425L120.05 21.1066L120.184 20.9719L120.318 20.8382L120.582 20.5742L120.712 20.4439L120.842 20.3147L121.097 20.0596L121.347 19.8091L121.471 19.6855L121.593 19.5631L121.714 19.4418L121.835 19.3217L121.954 19.2028L122.071 19.085L122.188 18.9683L122.303 18.8529L122.418 18.7386L122.531 18.6255L122.643 18.5136L122.753 18.4029L122.863 18.2933L122.971 18.185L123.078 18.0779L123.184 17.9719L123.289 17.8672L123.393 17.7637L123.495 17.6615L123.596 17.5604L123.696 17.4606L123.794 17.362L123.892 17.2647L123.988 17.1686L124.083 17.0737L124.176 16.9801L124.268 16.8878L124.36 16.7967L124.449 16.7069L124.538 16.6184L124.625 16.5311L124.711 16.4451L124.879 16.277L124.961 16.1949L125.042 16.1141L125.2 15.9564L125.277 15.8795L125.352 15.8039L125.427 15.7296L125.5 15.6567L125.641 15.5148L125.71 15.4459L125.778 15.3783L125.909 15.2472L125.973 15.1837L126.035 15.1215L126.096 15.0607L126.155 15.0013L126.213 14.9432L126.27 14.8865L126.379 14.7773L126.431 14.7248L126.483 14.6737L126.532 14.624L126.581 14.5757L126.627 14.5288L126.673 14.4833L126.76 14.3966L126.801 14.3554L126.841 14.3157L126.916 14.2405L126.951 14.205L126.985 14.171L127.018 14.1385L127.049 14.1074L127.107 14.0497L127.133 14.023L127.158 13.9979L127.182 13.9742L127.204 13.952L127.225 13.9313L127.244 13.912L127.262 13.8943L127.278 13.8781L127.306 13.8502L127.328 13.8284L124.499 11ZM73.4136 27.9142C82.3988 27.9142 91.3791 31.1018 99.6652 35.8342L99.635 35.8644L99.4145 36.0849L99.1933 36.3061L98.9715 36.5279L98.749 36.7504L98.5259 36.9735L98.3022 37.1973L98.0778 37.4216L97.8528 37.6466L97.6272 37.8722L97.401 38.0985L97.1741 38.3253L96.7186 38.7808L96.2608 39.2387L96.0309 39.4685L95.8005 39.6989L95.5695 39.9299L95.338 40.1614L94.8732 40.6263L94.6399 40.8595L94.4061 41.0933L94.1717 41.3277L93.9368 41.5626L93.7014 41.7981L93.4654 42.034L93.2288 42.2706L92.9918 42.5076L92.7542 42.7452L92.5161 42.9833L92.2775 43.2219L92.0384 43.461L91.7987 43.7007L91.5586 43.9408L91.318 44.1814L91.0769 44.4226L90.8352 44.6642L90.5931 44.9063L90.3506 45.1488L90.1075 45.3919L89.864 45.6354L89.62 45.8794L89.3756 46.1239L89.1307 46.3688L88.8853 46.6141L88.6395 46.8599L88.3932 47.1062L88.1466 47.3529L87.8994 47.6L87.6519 47.8475L87.4039 48.0955L87.1555 48.3439L86.9067 48.5927L86.6575 48.8419L86.4078 49.0916L86.1578 49.3416L86.1342 49.3652C82.8307 46.5875 78.5676 44.9142 73.9136 44.9142C63.4202 44.9142 54.9136 53.4208 54.9136 63.9142C54.9136 68.5681 56.5869 72.8313 59.3646 76.1348L59.3642 76.1353L59.0969 76.4025L58.8297 76.6697L58.2956 77.2038L58.0286 77.4708L57.7617 77.7377L57.495 78.0045L57.2283 78.2711L56.6952 78.8042L56.4288 79.0706L56.1626 79.3368L55.8964 79.603L55.6304 79.869L55.3645 80.1349L55.0988 80.4007L54.5677 80.9318L54.3023 81.1971L54.0371 81.4623L53.7721 81.7273L53.5072 81.9922L53.2425 82.2569L52.978 82.5215L52.7136 82.7858L52.4494 83.05L51.9215 83.5779L51.6579 83.8415L51.3945 84.105L50.8682 84.6312L50.6053 84.8941L50.3427 85.1567L49.8181 85.6813L49.5562 85.9433L49.2944 86.205L49.0329 86.4665L48.7717 86.7277L48.5107 86.9887L48.2499 87.2495L47.9894 87.51L47.7292 87.7702L47.4692 88.0302L47.2095 88.2899L46.9501 88.5494L46.6909 88.8085L46.432 89.0674L46.1734 89.326L45.9151 89.5843L45.6571 89.8424L45.3993 90.1001L45.1419 90.3575L44.8848 90.6146L44.628 90.8714L44.3715 91.1279L44.329 91.1704C41.7079 89.5997 39.2017 87.882 36.825 86.0728C27.2435 78.7792 19.9162 70.1099 15.8452 63.988C20.4818 57.827 28.4738 49.1009 38.2976 41.7669C48.7492 33.9641 61.0357 27.9142 73.4136 27.9142ZM62.2457 78.9106L62.1926 78.9637L61.6581 79.4981L61.391 79.7652L61.124 80.0323L60.5902 80.5661L60.3234 80.8329L60.0567 81.0996L59.7901 81.3662L59.5236 81.6326L59.2573 81.899L58.991 82.1653L58.7249 82.4314L58.4588 82.6974L57.9272 83.2291L57.6616 83.4947L57.3961 83.7602L57.1307 84.0255L56.8656 84.2907L56.6005 84.5557L56.3356 84.8206L55.8064 85.3499L55.542 85.6143L55.2778 85.8785L55.0138 86.1425L54.75 86.4063L54.2229 86.9334L53.9596 87.1966L53.6966 87.4597L53.1711 87.9851L52.9087 88.2475L52.6465 88.5097L52.1229 89.0334L51.8614 89.2949L51.6001 89.5561L51.3391 89.8171L51.0784 90.0779L50.8179 90.3384L50.5576 90.5987L50.2976 90.8586L50.0379 91.1183L49.5193 91.637L49.2604 91.8959L49.0018 92.1544L48.7435 92.4128L48.4855 92.6708L48.2278 92.9285L47.9704 93.1859L47.9517 93.2045C55.6783 97.2533 64.2774 99.9142 73.4136 99.9142C87.2253 99.9142 99.8928 93.8333 110.197 86.067C119.871 78.7764 127.311 70.1117 131.467 63.9875C126.746 57.8247 118.641 49.1034 108.725 41.7724C106.93 40.4454 105.082 39.1692 103.192 37.9647L103.121 38.0352L102.903 38.2537L102.683 38.473L102.463 38.6928L102.243 38.9134L101.8 39.3564L101.577 39.5788L101.354 39.8019L101.131 40.0257L100.906 40.25L100.681 40.475L100.456 40.7007L100.229 40.9269L100.003 41.1537L99.7751 41.3812L99.5471 41.6092L99.3184 41.8379L99.0892 42.0671L98.629 42.5273L98.398 42.7583L98.1664 42.9899L97.9343 43.222L97.7016 43.4547L97.4683 43.6879L97.2345 43.9218L97.0002 44.1561L96.7652 44.391L96.5298 44.6265L96.2938 44.8625L96.0573 45.099L95.8202 45.3361L95.5826 45.5736L95.3445 45.8117L95.1059 46.0503L94.8668 46.2895L94.6272 46.5291L94.387 46.7692L94.1464 47.0099L93.9053 47.251L93.6637 47.4926L93.4216 47.7347L93.179 47.9773L92.9359 48.2203L92.6924 48.4638L92.4484 48.7078L92.204 48.9523L91.9591 49.1972L91.7137 49.4425L91.4679 49.6884L91.2217 49.9346L90.975 50.1813L90.7279 50.4284L90.4803 50.676L89.9839 51.1723L89.7351 51.4211L89.4859 51.6704L89.2363 51.92L88.9862 52.17L88.91 52.2463C91.419 55.4664 92.9136 59.5158 92.9136 63.9142C92.9136 74.4076 84.407 82.9142 73.9136 82.9142C69.5152 82.9142 65.4658 81.4196 62.2457 78.9106ZM86.0538 55.1024C87.8526 57.5764 88.9136 60.6214 88.9136 63.9142C88.9136 72.1985 82.1979 78.9142 73.9136 78.9142C70.6208 78.9142 67.5758 77.8532 65.1018 76.0544L65.1356 76.0207L65.4033 75.753L65.671 75.4852L65.9388 75.2175L66.2065 74.9498L66.4742 74.682L66.742 74.4143L67.0097 74.1466L67.2774 73.8789L67.545 73.6112L67.8127 73.3436L68.0803 73.076L68.3478 72.8084L68.6154 72.5409L68.8829 72.2734L69.1503 72.006L69.4177 71.7386L69.685 71.4713L69.9523 71.204L70.2195 70.9368L70.4866 70.6697L70.7536 70.4026L71.0206 70.1357L71.2875 69.8688L71.5542 69.602L71.8209 69.3353L72.0875 69.0687L72.354 68.8022L72.6204 68.5359L72.8867 68.2696L73.1528 68.0034L73.4188 67.7374L73.6847 67.4715L73.9505 67.2057L74.2162 66.9401L74.4817 66.6746L74.747 66.4093L75.0122 66.1441L75.2773 65.879L75.5421 65.6141L75.8069 65.3494L76.0714 65.0848L76.3358 64.8205L76.6 64.5562L76.8641 64.2922L77.1279 64.0284L77.3916 63.7647L77.655 63.5012L77.9183 63.238L78.1813 62.9749L78.4442 62.7121L78.7068 62.4494L78.9693 62.187L79.2315 61.9248L79.7552 61.4011L80.0167 61.1396L80.2779 60.8783L80.539 60.6173L80.7998 60.3565L81.0603 60.096L81.3205 59.8357L81.5805 59.5757L81.8403 59.316L82.3589 58.7973L82.6178 58.5384L82.8765 58.2798L83.1348 58.0215L83.3928 57.7634L83.6506 57.5057L83.908 57.2482L84.422 56.7343L84.6785 56.4778L84.9347 56.2216L85.1905 55.9657L85.4461 55.7102L85.7012 55.455L85.9561 55.2002L86.0538 55.1024ZM83.2923 52.2071L83.1277 52.3717L82.8728 52.6266L82.6176 52.8818L82.3621 53.1373L82.1062 53.3932L81.5936 53.9059L81.3367 54.1627L81.0796 54.4198L80.8222 54.6773L80.5644 54.935L80.3064 55.193L80.048 55.4514L79.5305 55.9689L79.0119 56.4876L78.7521 56.7473L78.4921 57.0073L78.2318 57.2676L77.9713 57.5281L77.7105 57.7889L77.4495 58.0499L77.1883 58.3112L76.9268 58.5727L76.665 58.8344L76.403 59.0964L76.1408 59.3586L75.8784 59.621L75.6158 59.8836L75.3529 60.1465L75.0899 60.4096L74.8266 60.6728L74.5631 60.9363L74.2995 61.1999L74.0356 61.4638L73.7716 61.7278L73.5074 61.992L73.243 62.2564L72.9784 62.521L72.7137 62.7857L72.4488 63.0506L72.1838 63.3156L71.9186 63.5808L71.6532 63.8462L71.3877 64.1117L71.1221 64.3773L70.8563 64.6431L70.5904 64.909L70.3244 65.175L70.0582 65.4412L69.792 65.7074L69.5256 65.9738L69.2591 66.2403L68.9925 66.5069L68.7258 66.7736L68.459 67.0404L68.1922 67.3073L67.9252 67.5742L67.6581 67.8413L67.391 68.1084L67.1238 68.3756L66.8566 68.6428L66.5893 68.9102L66.3219 69.1775L66.0544 69.445L65.7869 69.7125L65.5194 69.98L65.2518 70.2476L64.9842 70.5152L64.7166 70.7828L64.4489 71.0505L64.1812 71.3182L63.9135 71.5859L63.6458 71.8536L63.3781 72.1213L63.1104 72.3891L62.8426 72.6568L62.5749 72.9245L62.3072 73.1922L62.2065 73.2929C60.1462 70.7243 58.9136 67.4632 58.9136 63.9142C58.9136 55.6299 65.6294 48.9142 73.9136 48.9142C77.4626 48.9142 80.7237 50.1467 83.2923 52.2071Z" fill="white"/>
</g>
<defs>
<filter id="filter0_d" x="0" y="0" width="153.342" height="134.828" filterUnits="userSpaceOnUse" color-interpolation-filters="sRGB">
<feFlood flood-opacity="0" result="BackgroundImageFix"/>
<feColorMatrix in="SourceAlpha" type="matrix" values="0 0 0 0 0 0 0 0 0 0 0 0 0 0 0 0 0 0 127 0" result="hardAlpha"/>
<feOffset dx="3" dy="3"/>
<feGaussianBlur stdDeviation="7"/>
<feColorMatrix type="matrix" values="0 0 0 0 0 0 0 0 0 0 0 0 0 0 0 0 0 0 0.3 0"/>
<feBlend mode="normal" in2="BackgroundImageFix" result="effect1_dropShadow"/>
<feBlend mode="normal" in="SourceGraphic" in2="effect1_dropShadow" result="shape"/>
</filter>
</defs>
</svg>
