<svg width="24" height="24" viewBox="0 0 24 24" fill="none" xmlns="http://www.w3.org/2000/svg">
<path fill-rule="evenodd" clip-rule="evenodd" d="M4 2H15.4286C16.5331 2 17.4286 2.89543 17.4286 4V4.57143H8.57143C6.36229 4.57143 4.57143 6.36229 4.57143 8.57143V17.4286H4C2.89543 17.4286 2 16.5331 2 15.4286V4C2 2.89543 2.89543 2 4 2ZM4.57143 19.4286H4C1.79086 19.4286 0 17.6377 0 15.4286V4C0 1.79086 1.79086 0 4 0H15.4286C17.6377 0 19.4286 1.79086 19.4286 4V4.57143H20C22.2091 4.57143 24 6.36229 24 8.57143V20C24 22.2091 22.2091 24 20 24H8.57143C6.36229 24 4.57143 22.2091 4.57143 20V19.4286ZM19.4286 6.57143H20C21.1046 6.57143 22 7.46686 22 8.57143V20C22 21.1046 21.1046 22 20 22H8.57143C7.46686 22 6.57143 21.1046 6.57143 20V19.4286H15.4286C17.6377 19.4286 19.4286 17.6377 19.4286 15.4286V6.57143ZM17.4286 6.57143V15.4286C17.4286 16.5331 16.5331 17.4286 15.4286 17.4286H6.57143V8.57143C6.57143 7.46686 7.46686 6.57143 8.57143 6.57143H17.4286Z" fill="#22304A"/>
</svg>
