<svg width="24" height="24" viewBox="0 0 24 24" fill="none" xmlns="http://www.w3.org/2000/svg">
<path fill-rule="evenodd" clip-rule="evenodd" d="M23.4718 3.43954C23.4718 3.24103 23.3931 3.05062 23.2529 2.91004V2.90854L21.3134 0.969041C21.1728 0.828437 20.9821 0.749451 20.7832 0.749451C20.5843 0.749451 20.3936 0.828437 20.2529 0.969041L18.6884 2.53504L21.6884 5.53504L23.2529 3.96904C23.3931 3.82846 23.4718 3.63805 23.4718 3.43954ZM17.6279 3.59404L20.6279 6.59404V6.59554L10.4084 16.8165C10.3257 16.8986 10.2251 16.9602 10.1144 16.9965L6.49344 18.204C6.42743 18.2259 6.35663 18.229 6.28895 18.213C6.22127 18.197 6.15938 18.1625 6.1102 18.1133C6.06102 18.0641 6.02649 18.0022 6.01046 17.9345C5.99443 17.8669 5.99754 17.7961 6.01944 17.73L7.22694 14.109C7.26373 13.9983 7.32588 13.8976 7.40844 13.815L17.6279 3.59404ZM2.15901 21.841C1.73705 21.419 1.5 20.8467 1.5 20.25V3.75C1.5 3.15326 1.73705 2.58097 2.15901 2.15901C2.58097 1.73705 3.15326 1.5 3.75 1.5H13.5C13.6989 1.5 13.8897 1.57902 14.0303 1.71967C14.171 1.86032 14.25 2.05109 14.25 2.25C14.25 2.44891 14.171 2.63968 14.0303 2.78033C13.8897 2.92098 13.6989 3 13.5 3H3.75C3.55109 3 3.36032 3.07902 3.21967 3.21967C3.07902 3.36032 3 3.55109 3 3.75V20.25C3 20.4489 3.07902 20.6397 3.21967 20.7803C3.36032 20.921 3.55109 21 3.75 21H20.25C20.4489 21 20.6397 20.921 20.7803 20.7803C20.921 20.6397 21 20.4489 21 20.25V11.25C21 11.0511 21.079 10.8603 21.2197 10.7197C21.3603 10.579 21.5511 10.5 21.75 10.5C21.9489 10.5 22.1397 10.579 22.2803 10.7197C22.421 10.8603 22.5 11.0511 22.5 11.25V20.25C22.5 20.8467 22.2629 21.419 21.841 21.841C21.419 22.2629 20.8467 22.5 20.25 22.5H3.75C3.15326 22.5 2.58097 22.2629 2.15901 21.841Z" fill="#22304A"/>
</svg>
