<svg width="24" height="24" viewBox="0 0 24 24" fill="none" xmlns="http://www.w3.org/2000/svg">
<path fill-rule="evenodd" clip-rule="evenodd" d="M2.46875 3.53099L20.4688 21.531L21.5308 20.469L3.53075 2.46899L2.46875 3.53099ZM16.185 19.368L13.764 16.9455C12.8278 17.2802 11.8157 17.3422 10.8456 17.1243C9.87554 16.9063 8.98729 16.4173 8.28423 15.7143C7.58117 15.0112 7.09221 14.123 6.87424 13.1529C6.65628 12.1828 6.71827 11.1707 7.053 10.2345L3.963 7.1445C1.407 9.417 0 12 0 12C0 12 4.5 20.25 12 20.25C13.4406 20.245 14.8649 19.9448 16.185 19.368ZM7.815 4.632C9.13508 4.05514 10.5594 3.75496 12 3.75C19.5 3.75 24 12 24 12C24 12 22.5915 14.5815 20.0385 16.857L16.9455 13.764C17.2802 12.8278 17.3422 11.8157 17.1243 10.8456C16.9063 9.87554 16.4173 8.98729 15.7143 8.28423C15.0112 7.58117 14.123 7.09221 13.1529 6.87424C12.1828 6.65628 11.1707 6.71827 10.2345 7.053L7.815 4.6335V4.632ZM8.28783 11.469L8.28765 11.4703L8.28633 11.469H8.28783ZM8.44228 13.1857C8.25834 12.6336 8.2054 12.0464 8.28765 11.4703L12.5313 15.7125C11.9549 15.795 11.3671 15.7421 10.8146 15.5581C10.2621 15.374 9.76013 15.0638 9.34835 14.652C8.93657 14.2402 8.62636 13.7382 8.44228 13.1857ZM15.7128 12.531L11.4693 8.286C12.0458 8.20349 12.6336 8.25637 13.186 8.44045C13.7385 8.62452 14.2405 8.93474 14.6523 9.34652C15.0641 9.7583 15.3743 10.2603 15.5584 10.8128C15.7425 11.3653 15.7953 11.953 15.7128 12.5295V12.531Z" fill="#22304A"/>
</svg>
