<svg width="126" height="108" viewBox="0 0 126 108" fill="none" xmlns="http://www.w3.org/2000/svg">
<path fill-rule="evenodd" clip-rule="evenodd" d="M114.086 0.585786L114.064 0.607588L114.051 0.620771L114.036 0.63547L114.002 0.669394L113.962 0.709326L113.916 0.755229L113.865 0.807067L113.807 0.864803L113.776 0.895871L113.743 0.928401L113.709 0.962388L113.674 0.997826L113.599 1.07304L113.518 1.15401L113.475 1.19664L113.431 1.2407L113.339 1.33306L113.29 1.38137L113.24 1.43108L113.137 1.5347L113.083 1.5886L113.028 1.64389L112.913 1.75862L112.793 1.87885L112.667 2.00455L112.536 2.13568L112.399 2.27219L112.258 2.41406L112.11 2.56125L112.035 2.63683L111.958 2.71373L111.88 2.79194L111.8 2.87145L111.719 2.95227L111.637 3.03438L111.469 3.20249L111.383 3.28847L111.296 3.37574L111.207 3.46427L111.117 3.55408L111.026 3.64516L110.934 3.7375L110.746 3.92594L110.65 4.02204L110.552 4.11938L110.354 4.31778L110.15 4.52109L109.942 4.72929L109.729 4.94235L109.621 5.05068L109.511 5.16021L109.401 5.27094L109.289 5.38285L109.176 5.49595L109.061 5.61023L108.946 5.72569L108.829 5.84232L108.711 5.96011L108.592 6.07907L108.472 6.19919L108.351 6.32046L108.229 6.44287L108.105 6.56644L107.855 6.81698L107.6 7.07204L107.47 7.20126L107.34 7.33159L107.076 7.59559L106.942 7.72925L106.808 7.86401L106.672 7.99986L106.535 8.1368L106.258 8.41394L106.117 8.55413L105.976 8.69538L105.69 8.9811L105.546 9.12554L105.401 9.27104L105.254 9.41759L105.106 9.56519L104.958 9.71382L104.808 9.86349L104.657 10.0142L104.506 10.1659L104.199 10.4724L104.044 10.6272L103.889 10.783L103.732 10.9398L103.574 11.0976L103.415 11.2564L103.255 11.4162L103.095 11.5769L102.933 11.7387L102.77 11.9014L102.606 12.0651L102.276 12.3954L102.11 12.562L101.942 12.7295L101.774 12.898L101.604 13.0675L101.434 13.2378L101.262 13.4092L101.09 13.5814L100.917 13.7546L100.743 13.9287L100.568 14.1037L100.392 14.2796L100.215 14.4565L99.8587 14.8128L99.6792 14.9924L99.4988 15.1728L99.3175 15.3541L99.1353 15.5363L98.9522 15.7194L98.7682 15.9033L98.5834 16.0881L98.3977 16.2738L98.2112 16.4604L98.0238 16.6478L97.8356 16.836L97.6465 17.0251L97.4566 17.215L97.2658 17.4058L97.0742 17.5974L96.8818 17.7898L96.4944 18.1771L96.2995 18.372L96.1039 18.5677L95.9074 18.7642L95.7101 18.9615L95.512 19.1596L95.3131 19.3585L95.1134 19.5582L94.9129 19.7586L94.7117 19.9599L94.5097 20.1619L94.3069 20.3646L94.1034 20.5682L93.8991 20.7725L93.694 20.9775L93.4882 21.1834L93.2817 21.3899L93.0744 21.5972L92.8663 21.8052L92.6576 22.014L92.4481 22.2235L92.2379 22.4337L92.1784 22.4932C83.2323 17.2329 73.2312 13.5 63 13.5C49.3779 13.5 36.2478 20.1168 25.491 28.1474C14.7062 36.1989 6.06744 45.8499 1.37977 52.3275L0.586372 53.4238L1.30902 54.568C5.42505 61.085 13.3826 70.7679 23.9886 78.8414C26.2077 80.5306 28.5501 82.1548 31.0043 83.6672L30.9065 83.765L30.6546 84.017L30.403 84.2685L30.1518 84.5197L29.901 84.7705L29.6506 85.0209L29.4006 85.2709L29.151 85.5205L28.9019 85.7697L28.6531 86.0185L28.4047 86.2669L28.1568 86.5148L27.6622 87.0094L27.4155 87.2561L27.1693 87.5023L26.9235 87.748L26.6782 87.9934L26.4333 88.2382L26.1889 88.4826L25.945 88.7266L25.7015 88.9701L25.2159 89.4556L24.9739 89.6977L24.7323 89.9393L24.4912 90.1804L24.2506 90.4209L24.0105 90.661L23.7709 90.9006L23.5319 91.1397L23.2933 91.3783L23.0552 91.6163L22.8177 91.8539L22.5807 92.0909L22.3442 92.3274L22.1082 92.5633L21.8728 92.7987L21.638 93.0336L21.4036 93.2679L21.1699 93.5017L20.9367 93.7349L20.704 93.9676L20.4719 94.1996L20.2404 94.4312L20.0095 94.6621L19.7791 94.8925L19.5493 95.1222L19.3202 95.3514L19.0916 95.58L18.8636 95.808L18.6362 96.0354L18.4094 96.2622L18.1832 96.4884L17.9576 96.7139L17.7327 96.9389L17.5084 97.1632L17.2847 97.3869L17.0616 97.6099L16.8392 97.8324L16.6174 98.0541L16.3963 98.2753L15.956 98.7156L15.7368 98.9347L15.5183 99.1532L15.3005 99.371L15.0834 99.5882L14.8669 99.8047L14.6511 100.02L14.436 100.236L14.2216 100.45L14.0079 100.664L13.7949 100.877L13.5826 101.089L13.371 101.301L12.9499 101.722L12.7405 101.931L12.5318 102.14L12.3238 102.348L12.1166 102.555L11.9101 102.761L11.7043 102.967L11.4993 103.172L11.2951 103.376L11.0916 103.58L10.8889 103.783L10.687 103.985L10.4858 104.186L10.2854 104.386L10.0858 104.586L12.9142 107.414L13.1138 107.215L13.3142 107.014L13.7173 106.611L13.9201 106.408L14.1235 106.205L14.3278 106.001L14.5328 105.796L14.7385 105.59L14.945 105.383L15.1523 105.176L15.3602 104.968L15.5689 104.759L15.7784 104.55L15.9885 104.34L16.1994 104.129L16.411 103.917L16.6233 103.705L16.8363 103.492L17.05 103.278L17.2644 103.064L17.4795 102.849L17.6953 102.633L17.9118 102.417L18.1289 102.199L18.3468 101.982L18.5653 101.763L18.7844 101.544L19.0042 101.324L19.2247 101.104L19.4459 100.883L19.6676 100.661L19.89 100.438L20.1131 100.215L20.3368 99.9916L20.5611 99.7673L21.0116 99.3168L21.2378 99.0906L21.4646 98.8638L21.692 98.6364L21.92 98.4084L22.1486 98.1798L22.3778 97.9507L22.6075 97.7209L22.8379 97.4905L23.0688 97.2596L23.3004 97.0281L23.7651 96.5633L23.9983 96.3301L24.2321 96.0964L24.4664 95.862L24.7013 95.6272L24.9367 95.3918L25.1726 95.1558L25.4091 94.9193L25.6461 94.6823L26.1217 94.2067L26.3603 93.9681L26.5994 93.7291L26.839 93.4895L27.0791 93.2494L27.3197 93.0088L27.5607 92.7677L27.8023 92.5261L28.0444 92.2841L28.2869 92.0415L28.5299 91.7985L28.7734 91.555L29.0174 91.3111L29.2618 91.0667L29.5066 90.8218L29.752 90.5765L29.9977 90.3307L30.2439 90.0845L30.4906 89.8378L30.7377 89.5907L30.9852 89.3432L31.2331 89.0953L31.4815 88.8469L31.7303 88.5981L31.9795 88.349L32.2291 88.0994L32.4791 87.8493L32.7295 87.599L32.9803 87.3482L33.2315 87.097L33.483 86.8454L33.9873 86.3411L34.24 86.0884L34.493 85.8354L34.583 85.7455C43.0308 90.3536 52.6398 93.5 63 93.5C77.9883 93.5 91.4875 86.9143 102.191 78.8472C112.899 70.7768 120.981 61.0974 125.181 54.5838L125.928 53.4243L125.11 52.3136C120.339 45.8388 111.576 36.1908 100.689 28.1418C99.067 26.9427 97.3925 25.7751 95.672 24.6564L95.6948 24.6337L95.9028 24.4256L96.1101 24.2183L96.3167 24.0118L96.5225 23.806L96.7275 23.6009L96.9318 23.3966L97.1354 23.1931L97.3381 22.9903L97.5401 22.7883L97.7414 22.5871L97.9418 22.3866L98.1415 22.1869L98.3404 21.988L98.5385 21.7899L98.7358 21.5926L98.9323 21.3961L99.128 21.2005L99.3229 21.0056L99.5169 20.8115L99.7102 20.6182L99.9026 20.4258L100.094 20.2342L100.475 19.8535L100.664 19.6644L100.852 19.4762L101.04 19.2888L101.226 19.1023L101.597 18.7318L101.781 18.5478L101.964 18.3647L102.146 18.1825L102.327 18.0012L102.508 17.8208L102.687 17.6413L102.866 17.4626L103.044 17.2849L103.22 17.108L103.396 16.9321L103.571 16.7571L103.745 16.583L103.919 16.4098L104.091 16.2376L104.433 15.8959L104.602 15.7265L104.77 15.558L104.938 15.3904L105.105 15.2238L105.27 15.0582L105.435 14.8935L105.599 14.7298L105.761 14.5671L105.923 14.4054L106.084 14.2446L106.244 14.0848L106.402 13.926L106.56 13.7682L106.717 13.6114L106.873 13.4557L107.028 13.3009L107.181 13.1471L107.334 12.9944L107.486 12.8426L107.637 12.6919L107.786 12.5423L107.935 12.3936L108.229 12.0995L108.374 11.954L108.519 11.8095L108.805 11.5238L108.946 11.3826L109.086 11.2424L109.225 11.1033L109.363 10.9652L109.5 10.8283L109.636 10.6924L109.771 10.5577L109.904 10.424L110.168 10.16L110.299 10.0297L110.428 9.90047L110.683 9.6454L110.934 9.39486L111.057 9.2713L111.18 9.14888L111.301 9.02761L111.421 8.9075L111.54 8.78854L111.658 8.67074L111.774 8.55412L111.89 8.43866L112.004 8.32438L112.117 8.21128L112.229 8.09936L112.34 7.98864L112.449 7.87911L112.558 7.77077L112.665 7.66364L112.771 7.55772L112.875 7.45301L112.979 7.34952L113.081 7.24725L113.182 7.1462L113.282 7.04639L113.381 6.94781L113.478 6.85047L113.574 6.75437L113.669 6.65952L113.763 6.56593L113.855 6.47359L113.946 6.38251L114.036 6.2927L114.124 6.20416L114.212 6.1169L114.298 6.03092L114.466 5.86281L114.548 5.78069L114.629 5.69988L114.786 5.54216L114.863 5.46526L114.939 5.38968L115.013 5.31542L115.086 5.24249L115.228 5.10062L115.297 5.03169L115.364 4.9641L115.495 4.83298L115.559 4.76945L115.621 4.70728L115.682 4.64648L115.741 4.58705L115.799 4.52899L115.856 4.47232L115.965 4.36312L116.018 4.31061L116.069 4.2595L116.119 4.20979L116.167 4.16149L116.214 4.1146L116.259 4.06912L116.346 3.98244L116.387 3.94124L116.427 3.90147L116.502 3.82625L116.538 3.79081L116.572 3.75683L116.604 3.7243L116.635 3.69323L116.693 3.63549L116.72 3.60884L116.745 3.58366L116.768 3.55996L116.791 3.53775L116.811 3.51704L116.831 3.49782L116.848 3.48011L116.865 3.4639L116.892 3.43602L116.914 3.41421L114.086 0.585786ZM63 17.5C71.9852 17.5 80.9655 20.6876 89.2516 25.42L89.2214 25.4502L89.0009 25.6707L88.7797 25.8919L88.5578 26.1137L88.3354 26.3362L88.1123 26.5593L87.8885 26.783L87.6642 27.0074L87.4392 27.2324L87.2136 27.458L86.9873 27.6842L86.7605 27.9111L86.305 28.3666L85.8471 28.8244L85.6173 29.0543L85.3869 29.2847L85.1559 29.5157L84.9244 29.7472L84.4595 30.212L84.2263 30.4453L83.9925 30.6791L83.7581 30.9135L83.5232 31.1484L83.2877 31.3838L83.0517 31.6198L82.8152 31.8564L82.5782 32.0934L82.3406 32.331L82.1025 32.5691L81.8639 32.8077L81.6247 33.0468L81.3851 33.2865L81.145 33.5266L80.9044 33.7672L80.6632 34.0084L80.4216 34.25L80.1795 34.4921L79.9369 34.7346L79.6939 34.9777L79.4504 35.2212L79.2064 35.4652L78.9619 35.7096L78.717 35.9545L78.4717 36.1999L78.2259 36.4457L77.9796 36.692L77.7329 36.9386L77.4858 37.1858L77.2383 37.4333L76.9903 37.6813L76.7419 37.9297L76.4931 38.1785L76.2439 38.4277L75.9942 38.6774L75.7442 38.9274L75.7206 38.951C72.4171 36.1733 68.1539 34.5 63.5 34.5C53.0066 34.5 44.5 43.0066 44.5 53.5C44.5 58.1539 46.1733 62.417 48.951 65.7206L48.9505 65.721L48.6833 65.9883L48.4161 66.2555L47.8819 66.7896L47.615 67.0566L47.3481 67.3235L47.0813 67.5902L46.8146 67.8569L46.2816 68.39L46.0152 68.6564L45.749 68.9226L45.4828 69.1888L45.2168 69.4548L44.9509 69.7207L44.6851 69.9864L44.154 70.5175L43.8887 70.7829L43.6235 71.0481L43.3585 71.3131L43.0936 71.578L42.8289 71.8427L42.5643 72.1072L42.3 72.3716L42.0358 72.6358L41.5079 73.1637L41.2443 73.4273L40.9808 73.6908L40.4545 74.217L40.1917 74.4799L39.9291 74.7425L39.4045 75.2671L39.1425 75.529L38.8808 75.7908L38.6193 76.0523L38.3581 76.3135L38.0971 76.5745L37.8363 76.8353L37.5758 77.0958L37.3156 77.356L37.0556 77.616L36.7959 77.8757L36.5364 78.1352L36.2773 78.3943L36.0184 78.6532L35.7598 78.9118L35.5015 79.1701L35.2434 79.4281L34.9857 79.6859L34.7283 79.9433L34.4712 80.2004L34.2144 80.4572L33.9579 80.7137L33.9154 80.7561C31.2943 79.1855 28.7881 77.4678 26.4114 75.6586C16.8299 68.365 9.50255 59.6956 5.43153 53.5738C10.0682 47.4128 18.0602 38.6867 27.884 31.3526C38.3356 23.5499 50.6221 17.5 63 17.5ZM51.832 68.4964L51.779 68.5495L51.2445 69.0839L50.9774 69.351L50.7104 69.6181L50.1765 70.1519L49.9098 70.4187L49.6431 70.6854L49.3765 70.9519L49.11 71.2184L48.8436 71.4848L48.5774 71.7511L48.3112 72.0172L48.0452 72.2832L47.5136 72.8149L47.2479 73.0805L46.9825 73.346L46.7171 73.6113L46.4519 73.8765L46.1869 74.1415L45.922 74.4064L45.3928 74.9357L45.1284 75.2L44.8642 75.4642L44.6002 75.7283L44.3363 75.9921L43.8093 76.5192L43.546 76.7824L43.283 77.0455L42.7575 77.5709L42.4951 77.8333L42.2329 78.0955L41.7092 78.6192L41.4478 78.8807L41.1865 79.1419L40.9255 79.4029L40.6647 79.6637L40.4042 79.9242L40.144 80.1844L39.884 80.4444L39.6243 80.7041L39.1057 81.2227L38.8468 81.4816L38.5882 81.7402L38.3299 81.9985L38.0719 82.2566L37.8141 82.5143L37.5567 82.7717L37.5381 82.7903C45.2647 86.8391 53.8637 89.5 63 89.5C76.8117 89.5 89.4792 83.419 99.7838 75.6528C109.457 68.3622 116.898 59.6975 121.053 53.5733C116.332 47.4105 108.227 38.6892 98.311 31.3582C96.5161 30.0312 94.6688 28.7549 92.778 27.5504L92.7074 27.621L92.4889 27.8395L92.2697 28.0587L92.0498 28.2786L91.8293 28.4991L91.3863 28.9422L91.1638 29.1646L90.9407 29.3877L90.717 29.6115L90.4926 29.8358L90.2676 30.0608L90.042 30.2864L89.8158 30.5127L89.5889 30.7395L89.3615 30.967L89.1334 31.195L88.9048 31.4236L88.6756 31.6529L88.2153 32.1131L87.9843 32.3441L87.7528 32.5756L87.5207 32.8078L87.288 33.0405L87.0547 33.2737L86.8209 33.5075L86.5865 33.7419L86.3516 33.9768L86.1162 34.2123L85.8802 34.4483L85.6436 34.6848L85.4066 34.9218L85.169 35.1594L84.9309 35.3975L84.6923 35.6361L84.4532 35.8753L84.2135 36.1149L83.9734 36.355L83.7328 36.5957L83.4917 36.8368L83.25 37.0784L83.0079 37.3205L82.7654 37.5631L82.5223 37.8061L82.2788 38.0496L82.0348 38.2936L81.7904 38.5381L81.5454 38.783L81.3001 39.0283L81.0543 39.2741L80.808 39.5204L80.5614 39.7671L80.3142 40.0142L80.0667 40.2617L79.5703 40.7581L79.3215 41.0069L79.0723 41.2562L78.8226 41.5058L78.5726 41.7558L78.4964 41.832C81.0054 45.0522 82.5 49.1015 82.5 53.5C82.5 63.9934 73.9934 72.5 63.5 72.5C59.1016 72.5 55.0522 71.0054 51.832 68.4964ZM75.6402 44.6882C77.439 47.1622 78.5 50.2072 78.5 53.5C78.5 61.7843 71.7843 68.5 63.5 68.5C60.2072 68.5 57.1622 67.439 54.6882 65.6402L54.722 65.6065L54.9897 65.3387L55.2574 65.071L55.5252 64.8033L55.7929 64.5355L56.0606 64.2678L56.3283 64.0001L56.596 63.7324L56.8637 63.4647L57.1314 63.197L57.399 62.9294L57.6666 62.6618L57.9342 62.3942L58.2017 62.1267L58.4692 61.8592L58.7367 61.5918L59.0041 61.3244L59.2714 61.0571L59.5386 60.7898L59.8058 60.5226L60.073 60.2555L60.34 59.9884L60.607 59.7215L60.8738 59.4546L61.1406 59.1878L61.4073 58.9211L61.6739 58.6545L61.9404 58.388L62.2068 58.1217L62.473 57.8554L62.7392 57.5892L63.0052 57.3232L63.2711 57.0573L63.5369 56.7915L63.8025 56.5259L64.068 56.2604L64.3334 55.9951L64.5986 55.7299L64.8636 55.4648L65.1285 55.1999L65.3932 54.9352L65.6578 54.6706L65.9222 54.4062L66.1864 54.142L66.4504 53.878L66.7143 53.6142L66.9779 53.3505L67.2414 53.087L67.5047 52.8238L67.7677 52.5607L68.0306 52.2979L68.2932 52.0352L68.5556 51.7728L68.8178 51.5106L69.3415 50.9869L69.6031 50.7254L69.8643 50.4641L70.1254 50.2031L70.3861 49.9423L70.6466 49.6818L70.9069 49.4215L71.1669 49.1615L71.4267 48.9018L71.9453 48.3831L72.2042 48.1242L72.4628 47.8656L72.7212 47.6073L72.9792 47.3492L73.237 47.0915L73.4944 46.834L74.0084 46.3201L74.2649 46.0636L74.521 45.8074L74.7769 45.5515L75.0324 45.296L75.2876 45.0408L75.5425 44.786L75.6402 44.6882ZM72.8787 41.7929L72.714 41.9575L72.4592 42.2124L72.204 42.4676L71.9485 42.7231L71.6926 42.979L71.1799 43.4916L70.9231 43.7485L70.666 44.0056L70.4085 44.263L70.1508 44.5208L69.8927 44.7788L69.6344 45.0372L69.1169 45.5547L68.5982 46.0733L68.3385 46.3331L68.0785 46.5931L67.8182 46.8534L67.5577 47.1139L67.2969 47.3747L67.0359 47.6357L66.7746 47.8969L66.5131 48.1585L66.2514 48.4202L65.9894 48.6822L65.7272 48.9444L65.4648 49.2068L65.2021 49.4694L64.9393 49.7323L64.6762 49.9953L64.413 50.2586L64.1495 50.5221L63.8858 50.7857L63.622 51.0496L63.358 51.3136L63.0938 51.5778L62.8294 51.8422L62.5648 52.1068L62.3001 52.3715L62.0352 52.6364L61.7701 52.9014L61.5049 53.1666L61.2396 53.432L60.9741 53.6975L60.7085 53.9631L60.4427 54.2289L60.1768 54.4948L59.9108 54.7608L59.6446 55.027L59.3783 55.2932L59.112 55.5596L58.8455 55.8261L58.5789 56.0927L58.3122 56.3594L58.0454 56.6262L57.7785 56.893L57.5116 57.16L57.2445 57.427L56.9774 57.6942L56.7102 57.9614L56.4429 58.2286L56.1756 58.4959L55.9082 58.7633L55.6408 59.0308L55.3733 59.2983L55.1058 59.5658L54.8382 59.8334L54.5706 60.101L54.303 60.3686L54.0353 60.6363L53.7676 60.904L53.4999 61.1717L53.2322 61.4394L52.9645 61.7071L52.6967 61.9748L52.429 62.2426L52.1613 62.5103L51.8935 62.778L51.7929 62.8787C49.7325 60.3101 48.5 57.049 48.5 53.5C48.5 45.2157 55.2157 38.5 63.5 38.5C67.049 38.5 70.3101 39.7325 72.8787 41.7929Z" fill="white"/>
</svg>
