<svg width="70" height="30" viewBox="0 0 70 30" fill="none" xmlns="http://www.w3.org/2000/svg">
<path d="M19.8873 12.954H17.6537L16.3773 20H18.611L19.8873 12.954Z" fill="white"/>
<path d="M18.1501 11.823C18.3864 12.057 18.6976 12.174 19.0837 12.174C19.517 12.174 19.8676 12.0397 20.1355 11.771C20.4034 11.5023 20.5373 11.1557 20.5373 10.731C20.5373 10.3843 20.4192 10.1027 20.1828 9.886C19.9464 9.66067 19.6313 9.548 19.2373 9.548C18.804 9.548 18.4534 9.68233 18.1855 9.951C17.9255 10.211 17.7955 10.5447 17.7955 10.952C17.7955 11.2987 17.9137 11.589 18.1501 11.823Z" fill="white"/>
<path d="M9.96643 19.909C10.581 20.091 11.231 20.182 11.9164 20.182C12.7122 20.182 13.4095 20.0477 14.0082 19.779C14.6149 19.5103 15.0798 19.1333 15.4028 18.648C15.7337 18.154 15.8992 17.5863 15.8992 16.945C15.8992 16.425 15.7731 16.0047 15.521 15.684C15.2689 15.3633 14.9655 15.125 14.611 14.969C14.2643 14.813 13.8231 14.6613 13.2873 14.514C12.8067 14.3753 12.4522 14.2453 12.2237 14.124C11.9952 14.0027 11.881 13.8293 11.881 13.604C11.881 13.344 12.011 13.1317 12.271 12.967C12.5389 12.8023 12.9052 12.72 13.3701 12.72C13.7798 12.72 14.1776 12.7807 14.5637 12.902C14.9576 13.0147 15.3161 13.1837 15.6392 13.409L16.4901 11.498C16.1198 11.2467 15.6786 11.056 15.1664 10.926C14.6543 10.7873 14.1028 10.718 13.5119 10.718C12.7082 10.718 12.007 10.8523 11.4082 11.121C10.8095 11.3897 10.3486 11.771 10.0255 12.265C9.70249 12.7503 9.54098 13.318 9.54098 13.968C9.54098 14.5053 9.66704 14.9387 9.91916 15.268C10.1792 15.5973 10.4864 15.8443 10.841 16.009C11.1955 16.165 11.6407 16.321 12.1764 16.477C12.6492 16.6157 12.9958 16.7457 13.2164 16.867C13.4449 16.9883 13.5592 17.1573 13.5592 17.374C13.5592 17.6253 13.4331 17.8247 13.181 17.972C12.9367 18.1107 12.5901 18.18 12.141 18.18C11.6682 18.18 11.1955 18.1063 10.7228 17.959C10.2501 17.803 9.80492 17.5777 9.38734 17.283L8.46552 19.207C8.85158 19.493 9.35189 19.727 9.96643 19.909Z" fill="white"/>
<path d="M23.0372 17.374C23.0214 17.4953 23.0135 17.5733 23.0135 17.608C23.0135 18.0067 23.2105 18.206 23.6044 18.206C23.8172 18.206 24.0417 18.1367 24.2781 17.998L24.5617 19.701C24.1205 19.9783 23.565 20.117 22.8953 20.117C22.2335 20.117 21.7056 19.935 21.3117 19.571C20.9256 19.207 20.7326 18.7 20.7326 18.05C20.7326 17.7987 20.7523 17.5777 20.7917 17.387L21.2172 15.06H20.2717L20.6144 13.214H21.5481L21.879 11.381H24.1244L23.7935 13.214H25.2472L24.9162 15.06H23.4626L23.0372 17.374Z" fill="white"/>
<path fill-rule="evenodd" clip-rule="evenodd" d="M32.2747 17.088C32.3614 16.6547 32.4047 16.269 32.4047 15.931C32.4047 15.3157 32.2747 14.774 32.0147 14.306C31.7626 13.838 31.3962 13.4783 30.9156 13.227C30.4429 12.967 29.8875 12.837 29.2493 12.837C28.4929 12.837 27.8193 13.0147 27.2284 13.37C26.6453 13.7167 26.1884 14.202 25.8575 14.826C25.5344 15.4413 25.3729 16.1347 25.3729 16.906C25.3729 17.556 25.5108 18.1237 25.7865 18.609C26.0702 19.0857 26.4681 19.4583 26.9802 19.727C27.5002 19.987 28.099 20.117 28.7765 20.117C29.8481 20.117 30.7581 19.8137 31.5065 19.207L30.5729 17.66C30.3602 17.8507 30.1199 17.9937 29.852 18.089C29.5841 18.1843 29.3084 18.232 29.0247 18.232C28.1344 18.232 27.6499 17.8507 27.5711 17.088H32.2747ZM28.2329 14.917C28.4772 14.7003 28.7805 14.592 29.1429 14.592C29.5053 14.592 29.7968 14.7003 30.0175 14.917C30.2381 15.125 30.3444 15.4153 30.3365 15.788H27.7011C27.8114 15.4153 27.9887 15.125 28.2329 14.917Z" fill="white"/>
<path d="M33.8075 20.117C33.4372 20.117 33.1299 19.9913 32.8857 19.74C32.6493 19.48 32.5311 19.155 32.5311 18.765C32.5311 18.297 32.669 17.92 32.9448 17.634C33.2284 17.3393 33.5711 17.192 33.9729 17.192C34.3511 17.192 34.6545 17.3177 34.8829 17.569C35.1193 17.8117 35.2375 18.1367 35.2375 18.544C35.2375 19.0033 35.0957 19.3803 34.812 19.675C34.5363 19.9697 34.2014 20.117 33.8075 20.117Z" fill="white"/>
<path d="M37.8053 19.727C38.3174 19.987 38.9122 20.117 39.5898 20.117C40.291 20.117 40.9174 19.9567 41.4689 19.636C42.0283 19.3153 42.4616 18.869 42.7689 18.297L41.1262 17.205C40.9607 17.5257 40.7638 17.7597 40.5353 17.907C40.3068 18.0543 40.0428 18.128 39.7435 18.128C39.3416 18.128 39.0304 18.0067 38.8098 17.764C38.5971 17.5127 38.4907 17.179 38.4907 16.763C38.4907 16.191 38.6365 15.723 38.928 15.359C39.2274 14.995 39.6056 14.813 40.0625 14.813C40.6534 14.813 41.0671 15.125 41.3035 15.749L43.218 14.748C42.9738 14.1413 42.5877 13.6733 42.0598 13.344C41.5319 13.006 40.9056 12.837 40.1807 12.837C39.4244 12.837 38.7428 13.0147 38.1362 13.37C37.5295 13.7253 37.0568 14.2107 36.718 14.826C36.3792 15.4413 36.2098 16.1347 36.2098 16.906C36.2098 17.5473 36.3477 18.1107 36.6234 18.596C36.9071 19.0813 37.301 19.4583 37.8053 19.727Z" fill="white"/>
<path fill-rule="evenodd" clip-rule="evenodd" d="M46.6063 20.117C45.9287 20.117 45.3378 19.987 44.8336 19.727C44.3293 19.4583 43.9393 19.0813 43.6636 18.596C43.3878 18.1107 43.2499 17.5473 43.2499 16.906C43.2499 16.1347 43.4193 15.4413 43.7581 14.826C44.0969 14.2107 44.5657 13.7253 45.1645 13.37C45.7633 13.0147 46.4369 12.837 47.1854 12.837C47.863 12.837 48.4539 12.9713 48.9581 13.24C49.4624 13.5 49.8524 13.8727 50.1281 14.358C50.4039 14.8347 50.5418 15.3937 50.5418 16.035C50.5418 16.8063 50.3724 17.504 50.0336 18.128C49.6948 18.7433 49.226 19.2287 48.6272 19.584C48.0363 19.9393 47.3627 20.117 46.6063 20.117ZM46.7363 18.128C47.1854 18.128 47.5518 17.946 47.8354 17.582C48.119 17.218 48.2609 16.7457 48.2609 16.165C48.2609 15.749 48.1545 15.4197 47.9418 15.177C47.729 14.9343 47.4336 14.813 47.0554 14.813C46.6063 14.813 46.2399 14.995 45.9563 15.359C45.6727 15.723 45.5309 16.1997 45.5309 16.789C45.5309 17.205 45.6372 17.5343 45.8499 17.777C46.0627 18.011 46.3581 18.128 46.7363 18.128Z" fill="white"/>
<path d="M62.0059 13.461C61.5962 13.045 61.0525 12.837 60.3749 12.837C59.9022 12.837 59.4649 12.9367 59.0631 13.136C58.6692 13.3267 58.3225 13.6083 58.0231 13.981C57.8419 13.6083 57.5819 13.3267 57.2431 13.136C56.9043 12.9367 56.5222 12.837 56.0968 12.837C55.3483 12.837 54.7101 13.1143 54.1822 13.669L54.3122 12.954H52.1849L50.9086 20H53.154L53.7922 16.477C53.9813 15.4457 54.4383 14.93 55.1631 14.93C55.4231 14.93 55.6201 15.0123 55.754 15.177C55.8959 15.333 55.9668 15.567 55.9668 15.879C55.9668 16.0523 55.951 16.2127 55.9195 16.36L55.2459 20H57.4913L58.1413 16.451C58.3304 15.437 58.7834 14.93 59.5004 14.93C59.7604 14.93 59.9574 15.008 60.0913 15.164C60.2331 15.32 60.304 15.554 60.304 15.866C60.304 16.0307 60.2883 16.1953 60.2568 16.36L59.5949 20H61.8404L62.5377 16.1C62.5928 15.8053 62.6204 15.515 62.6204 15.229C62.6204 14.4663 62.4156 13.877 62.0059 13.461Z" fill="white"/>
<path fill-rule="evenodd" clip-rule="evenodd" d="M0 15C0 6.71573 6.10521 0 13.6364 0H56.3636C63.8948 0 70 6.71573 70 15C70 23.2843 63.8948 30 56.3636 30H13.6364C6.10521 30 0 23.2843 0 15ZM13.6364 3.10345H56.3636C62.3366 3.10345 67.1787 8.42972 67.1787 15C67.1787 21.5703 62.3366 26.8965 56.3636 26.8965H13.6364C7.66338 26.8965 2.82132 21.5703 2.82132 15C2.82132 8.42972 7.66338 3.10345 13.6364 3.10345Z" fill="white"/>
</svg>
