<svg width="21" height="21" viewBox="0 0 21 21" fill="none" xmlns="http://www.w3.org/2000/svg">
<path fill-rule="evenodd" clip-rule="evenodd" d="M20 4.22623C20 4.06195 19.9355 3.90437 19.8207 3.78803V3.78679L18.2318 2.18172C18.1166 2.06537 17.9603 2 17.7974 2C17.6345 2 17.4782 2.06537 17.363 2.18172L16.0813 3.47769L18.539 5.96039L19.8207 4.66442C19.9355 4.54808 20 4.3905 20 4.22623ZM15.2125 4.35408L17.6702 6.83678V6.83802L9.29808 15.2966C9.23034 15.3644 9.14788 15.4154 9.05723 15.4455L6.09079 16.4448C6.03671 16.4629 5.97871 16.4655 5.92326 16.4522C5.86782 16.439 5.81712 16.4104 5.77683 16.3697C5.73654 16.329 5.70825 16.2778 5.69512 16.2218C5.68199 16.1658 5.68453 16.1072 5.70247 16.0525L6.6917 13.0559C6.72184 12.9642 6.77275 12.8809 6.84039 12.8126L15.2125 4.35408ZM2.53988 19.4546C2.1942 19.1054 2 18.6318 2 18.138V4.48313C2 3.9893 2.1942 3.51568 2.53988 3.16649C2.88556 2.81729 3.35441 2.62111 3.84327 2.62111H11.8308C11.9937 2.62111 12.15 2.6865 12.2653 2.8029C12.3805 2.9193 12.4452 3.07717 12.4452 3.24179C12.4452 3.4064 12.3805 3.56427 12.2653 3.68067C12.15 3.79707 11.9937 3.86246 11.8308 3.86246H3.84327C3.68032 3.86246 3.52404 3.92785 3.40881 4.04425C3.29358 4.16065 3.22885 4.31852 3.22885 4.48313V18.138C3.22885 18.3026 3.29358 18.4604 3.40881 18.5768C3.52404 18.6932 3.68032 18.7586 3.84327 18.7586H17.3606C17.5236 18.7586 17.6799 18.6932 17.7951 18.5768C17.9103 18.4604 17.975 18.3026 17.975 18.138V10.6899C17.975 10.5253 18.0398 10.3674 18.155 10.251C18.2702 10.1346 18.4265 10.0692 18.5895 10.0692C18.7524 10.0692 18.9087 10.1346 19.0239 10.251C19.1392 10.3674 19.2039 10.5253 19.2039 10.6899V18.138C19.2039 18.6318 19.0097 19.1054 18.664 19.4546C18.3183 19.8038 17.8495 20 17.3606 20H3.84327C3.35441 20 2.88556 19.8038 2.53988 19.4546Z" fill="#22304A"/>
</svg>
