<svg width="21" height="21" viewBox="0 0 21 21" fill="none" xmlns="http://www.w3.org/2000/svg">
<path fill-rule="evenodd" clip-rule="evenodd" d="M15.9286 0H2.625C1.17525 0 0 1.17525 0 2.625V18.375C0 19.8247 1.17525 21 2.625 21H18.375C19.8247 21 21 19.8247 21 18.375V5.07144L15.9286 0ZM3.9375 2.625C3.9375 1.90013 4.52513 1.3125 5.25 1.3125H14.4375C15.1624 1.3125 15.75 1.90013 15.75 2.625V7.21875C15.75 7.94362 15.1624 8.53125 14.4375 8.53125H5.25C4.52513 8.53125 3.9375 7.94362 3.9375 7.21875V2.625ZM5.25 11.1562C4.52513 11.1562 3.9375 11.7439 3.9375 12.4688V19.6875H17.0625V12.4688C17.0625 11.7439 16.4749 11.1562 15.75 11.1562H5.25ZM15.75 12.4688H5.25V13.6992H15.75V12.4688ZM5.25 14.9297H15.75V16.1602H5.25V14.9297ZM15.75 17.3906H5.25V18.6211H15.75V17.3906ZM12.4688 2.625C12.1063 2.625 11.8125 2.91881 11.8125 3.28125V6.5625C11.8125 6.92494 12.1063 7.21875 12.4688 7.21875H13.7812C14.1437 7.21875 14.4375 6.92494 14.4375 6.5625V3.28125C14.4375 2.91881 14.1437 2.625 13.7812 2.625H12.4688Z" fill="#22304A"/>
</svg>
