<svg width="14" height="12" viewBox="0 0 14 12" fill="none" xmlns="http://www.w3.org/2000/svg">
<path fill-rule="evenodd" clip-rule="evenodd" d="M7 10.575C3.13401 10.575 0 6.2875 0 6.2875C0 6.2875 3.13401 2 7 2C10.866 2 14 6.2875 14 6.2875C14 6.2875 10.866 10.575 7 10.575ZM2.7285 7.6297C2.15611 7.14537 1.68795 6.65858 1.35932 6.2875C1.68795 5.91642 2.15611 5.42963 2.7285 4.9453C3.419 4.36103 4.21172 3.82213 5.05733 3.46955C4.42413 4.03061 4.02501 4.84993 4.02501 5.76247C4.02501 7.45384 5.39614 8.82497 7.08751 8.82497C8.77889 8.82497 10.15 7.45384 10.15 5.76247C10.15 4.92764 9.81598 4.17083 9.27427 3.6184C9.99554 3.96502 10.672 4.43806 11.2715 4.9453C11.8439 5.42963 12.3121 5.91642 12.6407 6.2875C12.3121 6.65858 11.8439 7.14537 11.2715 7.6297C10.0704 8.64601 8.56008 9.525 7 9.525C5.43992 9.525 3.92958 8.64601 2.7285 7.6297ZM8.57498 5.76253C8.57498 6.58406 7.909 7.25003 7.08748 7.25003C6.26595 7.25003 5.59998 6.58406 5.59998 5.76253C5.59998 4.94101 6.26595 4.27503 7.08748 4.27503C7.909 4.27503 8.57498 4.94101 8.57498 5.76253Z" fill="#C4C4C4"/>
</svg>
