<svg width="16" height="21" viewBox="0 0 16 21" fill="none" xmlns="http://www.w3.org/2000/svg">
<path fill-rule="evenodd" clip-rule="evenodd" d="M2.66667 0.5H9.33333L16 7.64286V17.6429C16 18.4006 15.719 19.1273 15.219 19.6632C14.7189 20.199 14.0406 20.5 13.3333 20.5H2.66667C1.95942 20.5 1.28115 20.199 0.781048 19.6632C0.280951 19.1273 0 18.4006 0 17.6429V3.35714C0 2.59938 0.280951 1.87266 0.781048 1.33684C1.28115 0.80102 1.95942 0.5 2.66667 0.5ZM2.66667 1.92857H9.33333L9.33333 5.5C9.33333 6.06832 9.54405 6.61337 9.91912 7.01523C10.2942 7.41709 10.8029 7.64286 11.3333 7.64286H14.6667V17.6429C14.6667 18.0217 14.5262 18.3851 14.2761 18.653C14.0261 18.9209 13.687 19.0714 13.3333 19.0714H2.66667C2.31304 19.0714 1.97391 18.9209 1.72386 18.653C1.47381 18.3851 1.33333 18.0217 1.33333 17.6429V3.35714C1.33333 2.97826 1.47381 2.6149 1.72386 2.34699C1.97391 2.07908 2.31304 1.92857 2.66667 1.92857ZM4.19526 14.9949C4.07024 15.1289 4 15.3105 4 15.5C4 15.6894 4.07024 15.8711 4.19526 16.0051C4.32029 16.139 4.48986 16.2143 4.66667 16.2143H7.33333C7.51014 16.2143 7.67971 16.139 7.80474 16.0051C7.92976 15.8711 8 15.6894 8 15.5C8 15.3105 7.92976 15.1289 7.80474 14.9949C7.67971 14.861 7.51014 14.7857 7.33333 14.7857H4.66667C4.48986 14.7857 4.32029 14.861 4.19526 14.9949ZM4.19526 12.1378C4.07024 12.2717 4 12.4534 4 12.6428C4 12.8323 4.07024 13.014 4.19526 13.1479C4.32029 13.2819 4.48986 13.3571 4.66667 13.3571H11.3333C11.5101 13.3571 11.6797 13.2819 11.8047 13.1479C11.9298 13.014 12 12.8323 12 12.6428C12 12.4534 11.9298 12.2717 11.8047 12.1378C11.6797 12.0038 11.5101 11.9286 11.3333 11.9286H4.66667C4.48986 11.9286 4.32029 12.0038 4.19526 12.1378ZM4.19526 9.28062C4.07024 9.41458 4 9.59626 4 9.7857C4 9.97514 4.07024 10.1568 4.19526 10.2908C4.32029 10.4247 4.48986 10.5 4.66667 10.5H11.3333C11.5101 10.5 11.6797 10.4247 11.8047 10.2908C11.9298 10.1568 12 9.97514 12 9.7857C12 9.59626 11.9298 9.41458 11.8047 9.28062C11.6797 9.14667 11.5101 9.07141 11.3333 9.07141H4.66667C4.48986 9.07141 4.32029 9.14667 4.19526 9.28062Z" fill="#22304A"/>
</svg>
