<svg width="21" height="21" viewBox="0 0 21 21" fill="none" xmlns="http://www.w3.org/2000/svg">
<path fill-rule="evenodd" clip-rule="evenodd" d="M4 2H13C14.1046 2 15 2.89543 15 4H8C5.79086 4 4 5.79086 4 8L4 15C2.89543 15 2 14.1046 2 13V4C2 2.89543 2.89543 2 4 2ZM6 17C6 18.1046 6.89543 19 8 19H17C18.1046 19 19 18.1046 19 17V8C19 6.89543 18.1046 6 17 6V13C17 15.2091 15.2091 17 13 17H6ZM15 6V13C15 14.1046 14.1046 15 13 15H6V8C6 6.89543 6.89543 6 8 6H15ZM17 4C17 1.79086 15.2091 0 13 0H4C1.79086 0 0 1.79086 0 4V13C0 15.2091 1.79086 17 4 17C4 19.2091 5.79086 21 8 21H17C19.2091 21 21 19.2091 21 17V8C21 5.79086 19.2091 4 17 4Z" fill="#22304A"/>
</svg>
