<svg width="25" height="25" viewBox="0 0 25 25" fill="none" xmlns="http://www.w3.org/2000/svg">
<path fill-rule="evenodd" clip-rule="evenodd" d="M25 12.5C25 15.8152 23.683 18.9946 21.3388 21.3388C18.9946 23.683 15.8152 25 12.5 25C9.18479 25 6.00537 23.683 3.66117 21.3388C1.31696 18.9946 0 15.8152 0 12.5C0 9.18479 1.31696 6.00537 3.66117 3.66117C6.00537 1.31696 9.18479 0 12.5 0C15.8152 0 18.9946 1.31696 21.3388 3.66117C23.683 6.00537 25 9.18479 25 12.5ZM13.2812 6.25C13.2812 6.0428 13.1989 5.84409 13.0524 5.69757C12.9059 5.55106 12.7072 5.46875 12.5 5.46875C12.2928 5.46875 12.0941 5.55106 11.9476 5.69757C11.8011 5.84409 11.7188 6.0428 11.7188 6.25V11.7188H6.25C6.0428 11.7188 5.84409 11.8011 5.69757 11.9476C5.55106 12.0941 5.46875 12.2928 5.46875 12.5C5.46875 12.7072 5.55106 12.9059 5.69757 13.0524C5.84409 13.1989 6.0428 13.2812 6.25 13.2812H11.7188V18.75C11.7188 18.9572 11.8011 19.1559 11.9476 19.3024C12.0941 19.4489 12.2928 19.5312 12.5 19.5312C12.7072 19.5312 12.9059 19.4489 13.0524 19.3024C13.1989 19.1559 13.2812 18.9572 13.2812 18.75V13.2812H18.75C18.9572 13.2812 19.1559 13.1989 19.3024 13.0524C19.4489 12.9059 19.5312 12.7072 19.5312 12.5C19.5312 12.2928 19.4489 12.0941 19.3024 11.9476C19.1559 11.8011 18.9572 11.7188 18.75 11.7188H13.2812V6.25Z" fill="#22304A"/>
</svg>
