<svg width="26" height="26" viewBox="0 0 26 26" fill="none" xmlns="http://www.w3.org/2000/svg">
<path fill-rule="evenodd" clip-rule="evenodd" d="M13.1288 2C12.7059 2 12.3002 2.16798 12.0011 2.46701L1.39892 13.0676C1.24917 13.2174 1.16504 13.4205 1.16504 13.6323C1.16504 13.844 1.24917 14.0472 1.39892 14.1969C1.54867 14.3467 1.75178 14.4308 1.96356 14.4308C2.17535 14.4308 2.37846 14.3467 2.52821 14.1969L13.1288 3.5947L23.7294 14.1969C23.8792 14.3467 24.0823 14.4308 24.2941 14.4308C24.5059 14.4308 24.709 14.3467 24.8587 14.1969C25.0085 14.0472 25.0926 13.844 25.0926 13.6323C25.0926 13.4205 25.0085 13.2174 24.8587 13.0676L21.1035 9.313V4.06203C21.1035 3.85052 21.0195 3.64767 20.8699 3.4981C20.7204 3.34854 20.5175 3.26451 20.306 3.26451H18.711C18.4995 3.26451 18.2966 3.34854 18.147 3.4981C17.9975 3.64767 17.9135 3.85052 17.9135 4.06203V6.1234L14.2565 2.46701C13.9574 2.16798 13.5518 2 13.1288 2ZM22.6986 14.8971L13.1284 5.3269L3.55813 14.8971V21.6074C3.55813 22.242 3.8102 22.8505 4.25889 23.2992C4.70758 23.7479 5.31614 24 5.95068 24H20.306C20.9406 24 21.5491 23.7479 21.9978 23.2992C22.4465 22.8505 22.6986 22.242 22.6986 21.6074V14.8971Z" fill="#22304A"/>
</svg>
