<svg width="24" height="24" viewBox="0 0 24 24" fill="none" xmlns="http://www.w3.org/2000/svg">
<path fill-rule="evenodd" clip-rule="evenodd" d="M13.2583 2.65165C13.9615 1.94839 14.9154 1.5533 15.9099 1.5533C16.9045 1.5533 17.8583 1.94839 18.5616 2.65165C19.2648 3.35491 19.6599 4.30874 19.6599 5.3033C19.6599 6.29786 19.2648 7.25169 18.5616 7.95495L9.01562 17.5009C8.59366 17.9228 8.02137 18.1599 7.42463 18.1599C6.82789 18.1599 6.2556 17.9228 5.83364 17.5009C5.41168 17.0789 5.17463 16.5066 5.17463 15.9099C5.17463 15.3132 5.41168 14.7409 5.83364 14.3189L13.2583 6.89429C13.3989 6.75364 13.5897 6.67462 13.7886 6.67462C13.9875 6.67462 14.1783 6.75364 14.3189 6.89429C14.4596 7.03494 14.5386 7.22571 14.5386 7.42462C14.5386 7.62353 14.4596 7.8143 14.3189 7.95495L6.8943 15.3796C6.75365 15.5202 6.67463 15.711 6.67463 15.9099C6.67463 16.1088 6.75365 16.2996 6.8943 16.4402C7.03495 16.5809 7.22572 16.6599 7.42463 16.6599C7.62354 16.6599 7.81431 16.5809 7.95496 16.4402L17.5009 6.89429C17.7098 6.68536 17.8756 6.43732 17.9886 6.16434C18.1017 5.89136 18.1599 5.59878 18.1599 5.3033C18.1599 5.00783 18.1017 4.71525 17.9886 4.44226C17.8756 4.16928 17.7098 3.92124 17.5009 3.71231C17.292 3.50338 17.0439 3.33764 16.7709 3.22457C16.498 3.1115 16.2054 3.0533 15.9099 3.0533C15.6144 3.0533 15.3219 3.1115 15.0489 3.22457C14.7759 3.33764 14.5279 3.50338 14.3189 3.71231L4.77298 13.2583C4.06972 13.9615 3.67463 14.9153 3.67463 15.9099C3.67463 16.9045 4.06972 17.8583 4.77298 18.5616C5.47624 19.2648 6.43007 19.6599 7.42463 19.6599C8.41919 19.6599 9.37302 19.2648 10.0763 18.5616L17.5009 11.1369C17.6416 10.9963 17.8323 10.9173 18.0312 10.9173C18.2301 10.9173 18.4209 10.9963 18.5616 11.1369C18.7022 11.2776 18.7812 11.4683 18.7812 11.6673C18.7812 11.8662 18.7022 12.0569 18.5616 12.1976L11.1369 19.6222C10.1524 20.6068 8.81702 21.1599 7.42463 21.1599C6.03224 21.1599 4.69689 20.6068 3.71232 19.6222C2.72775 18.6376 2.17463 17.3023 2.17463 15.9099C2.17463 14.5175 2.72775 13.1822 3.71232 12.1976L13.2583 2.65165Z" fill="#22304A"/>
</svg>
