<svg width="25" height="25" viewBox="0 0 25 25" fill="none" xmlns="http://www.w3.org/2000/svg">
<path fill-rule="evenodd" clip-rule="evenodd" d="M22 5.22623C22 5.06195 21.9355 4.90437 21.8207 4.78803V4.78679L20.2318 3.18172C20.1166 3.06537 19.9603 3 19.7974 3C19.6345 3 19.4782 3.06537 19.363 3.18172L18.0813 4.47769L20.539 6.96039L21.8207 5.66442C21.9355 5.54808 22 5.3905 22 5.22623ZM17.2125 5.35408L19.6702 7.83678V7.83802L11.2981 16.2966C11.2303 16.3644 11.1479 16.4154 11.0572 16.4455L8.09079 17.4448C8.03671 17.4629 7.97871 17.4655 7.92326 17.4522C7.86782 17.439 7.81712 17.4104 7.77683 17.3697C7.73654 17.329 7.70825 17.2778 7.69512 17.2218C7.68199 17.1658 7.68453 17.1072 7.70247 17.0525L8.6917 14.0559C8.72184 13.9642 8.77275 13.8809 8.84039 13.8126L17.2125 5.35408ZM4.53988 20.4546C4.1942 20.1054 4 19.6318 4 19.138V5.48313C4 4.9893 4.1942 4.51568 4.53988 4.16649C4.88556 3.81729 5.35441 3.62111 5.84327 3.62111H13.8308C13.9937 3.62111 14.15 3.6865 14.2653 3.8029C14.3805 3.9193 14.4452 4.07717 14.4452 4.24179C14.4452 4.4064 14.3805 4.56427 14.2653 4.68067C14.15 4.79707 13.9937 4.86246 13.8308 4.86246H5.84327C5.68032 4.86246 5.52404 4.92785 5.40881 5.04425C5.29358 5.16065 5.22885 5.31852 5.22885 5.48313V19.138C5.22885 19.3026 5.29358 19.4604 5.40881 19.5768C5.52404 19.6932 5.68032 19.7586 5.84327 19.7586H19.3606C19.5236 19.7586 19.6799 19.6932 19.7951 19.5768C19.9103 19.4604 19.975 19.3026 19.975 19.138V11.6899C19.975 11.5253 20.0398 11.3674 20.155 11.251C20.2702 11.1346 20.4265 11.0692 20.5895 11.0692C20.7524 11.0692 20.9087 11.1346 21.0239 11.251C21.1392 11.3674 21.2039 11.5253 21.2039 11.6899V19.138C21.2039 19.6318 21.0097 20.1054 20.664 20.4546C20.3183 20.8038 19.8495 21 19.3606 21H5.84327C5.35441 21 4.88556 20.8038 4.53988 20.4546Z" fill="#22304A"/>
</svg>
