<svg width="25" height="25" viewBox="0 0 25 25" fill="none" xmlns="http://www.w3.org/2000/svg">
<path fill-rule="evenodd" clip-rule="evenodd" d="M5.30769 3.33333C4.96087 3.33333 4.62825 3.47381 4.38301 3.72386C4.13777 3.97391 4 4.31304 4 4.66667V6C4 6.35362 4.13777 6.69276 4.38301 6.94281C4.62825 7.19286 4.96087 7.33333 5.30769 7.33333H5.96154V19.3333C5.96154 20.0406 6.23709 20.7189 6.72757 21.219C7.21805 21.719 7.88328 22 8.57692 22H16.4231C17.1167 22 17.782 21.719 18.2724 21.219C18.7629 20.7189 19.0385 20.0406 19.0385 19.3333V7.33333H19.6923C20.0391 7.33333 20.3717 7.19286 20.617 6.94281C20.8622 6.69276 21 6.35362 21 6V4.66667C21 4.31304 20.8622 3.97391 20.617 3.72386C20.3717 3.47381 20.0391 3.33333 19.6923 3.33333H15.1154C15.1154 2.97971 14.9776 2.64057 14.7324 2.39052C14.4871 2.14048 14.1545 2 13.8077 2H11.1923C10.8455 2 10.5129 2.14048 10.2676 2.39052C10.0224 2.64057 9.88462 2.97971 9.88462 3.33333H5.30769ZM9.23077 8.66667C9.40418 8.66667 9.57049 8.73691 9.69311 8.86193C9.81573 8.98695 9.88462 9.15652 9.88462 9.33333V18.6667C9.88462 18.8435 9.81573 19.013 9.69311 19.1381C9.57049 19.2631 9.40418 19.3333 9.23077 19.3333C9.05736 19.3333 8.89105 19.2631 8.76843 19.1381C8.64581 19.013 8.57692 18.8435 8.57692 18.6667V9.33333C8.57692 9.15652 8.64581 8.98695 8.76843 8.86193C8.89105 8.73691 9.05736 8.66667 9.23077 8.66667ZM12.5 8.66667C12.6734 8.66667 12.8397 8.73691 12.9623 8.86193C13.085 8.98695 13.1538 9.15652 13.1538 9.33333V18.6667C13.1538 18.8435 13.085 19.013 12.9623 19.1381C12.8397 19.2631 12.6734 19.3333 12.5 19.3333C12.3266 19.3333 12.1603 19.2631 12.0377 19.1381C11.915 19.013 11.8462 18.8435 11.8462 18.6667V9.33333C11.8462 9.15652 11.915 8.98695 12.0377 8.86193C12.1603 8.73691 12.3266 8.66667 12.5 8.66667ZM16.4231 9.33333C16.4231 9.15652 16.3542 8.98695 16.2316 8.86193C16.109 8.73691 15.9426 8.66667 15.7692 8.66667C15.5958 8.66667 15.4295 8.73691 15.3069 8.86193C15.1843 8.98695 15.1154 9.15652 15.1154 9.33333V18.6667C15.1154 18.8435 15.1843 19.013 15.3069 19.1381C15.4295 19.2631 15.5958 19.3333 15.7692 19.3333C15.9426 19.3333 16.109 19.2631 16.2316 19.1381C16.3542 19.013 16.4231 18.8435 16.4231 18.6667V9.33333Z" fill="#22304A"/>
</svg>
