<svg width="25" height="25" viewBox="0 0 25 25" fill="none" xmlns="http://www.w3.org/2000/svg">
<path fill-rule="evenodd" clip-rule="evenodd" d="M22.751 21.9698C22.3115 22.4093 21.7154 22.6562 21.0938 22.6562H8.59375C7.97215 22.6562 7.37601 22.4093 6.93647 21.9698C6.49693 21.5302 6.25 20.9341 6.25 20.3125V17.9688C6.25 17.7615 6.33231 17.5628 6.47882 17.4163C6.62534 17.2698 6.82405 17.1875 7.03125 17.1875C7.23845 17.1875 7.43716 17.2698 7.58368 17.4163C7.73019 17.5628 7.8125 17.7615 7.8125 17.9688V20.3125C7.8125 20.5197 7.89481 20.7184 8.04132 20.8649C8.18784 21.0114 8.38655 21.0938 8.59375 21.0938H21.0938C21.301 21.0938 21.4997 21.0114 21.6462 20.8649C21.7927 20.7184 21.875 20.5197 21.875 20.3125V4.6875C21.875 4.4803 21.7927 4.28159 21.6462 4.13507C21.4997 3.98856 21.301 3.90625 21.0938 3.90625H8.59375C8.38655 3.90625 8.18784 3.98856 8.04132 4.13507C7.89481 4.28159 7.8125 4.4803 7.8125 4.6875V7.03125C7.8125 7.23845 7.73019 7.43716 7.58368 7.58368C7.43716 7.73019 7.23845 7.8125 7.03125 7.8125C6.82405 7.8125 6.62534 7.73019 6.47882 7.58368C6.33231 7.43716 6.25 7.23845 6.25 7.03125V4.6875C6.25 4.0659 6.49693 3.46976 6.93647 3.03022C7.37601 2.59068 7.97215 2.34375 8.59375 2.34375H21.0938C21.7154 2.34375 22.3115 2.59068 22.751 3.03022C23.1906 3.46976 23.4375 4.0659 23.4375 4.6875V20.3125C23.4375 20.9341 23.1906 21.5302 22.751 21.9698ZM12.7281 17.7406C12.6554 17.6681 12.5977 17.5819 12.5583 17.4869C12.5189 17.392 12.4986 17.2903 12.4986 17.1875C12.4986 17.0847 12.5189 16.983 12.5583 16.8881C12.5977 16.7932 12.6554 16.707 12.7281 16.6344L16.0825 13.2812H2.34375C2.13655 13.2812 1.93784 13.1989 1.79132 13.0524C1.64481 12.9059 1.5625 12.7072 1.5625 12.5C1.5625 12.2928 1.64481 12.0941 1.79132 11.9476C1.93784 11.8011 2.13655 11.7188 2.34375 11.7188H16.0825L12.7281 8.36564C12.5814 8.21894 12.499 8.01997 12.499 7.81251C12.499 7.60505 12.5814 7.40608 12.7281 7.25939C12.8748 7.11269 13.0738 7.03027 13.2813 7.03027C13.4887 7.03027 13.6877 7.11269 13.8344 7.25939L18.5219 11.9469C18.5946 12.0195 18.6524 12.1057 18.6917 12.2006C18.7311 12.2955 18.7514 12.3972 18.7514 12.5C18.7514 12.6028 18.7311 12.7045 18.6917 12.7994C18.6524 12.8944 18.5946 12.9806 18.5219 13.0531L13.8344 17.7406C13.7618 17.8134 13.6756 17.8711 13.5807 17.9105C13.4858 17.9499 13.384 17.9702 13.2813 17.9702C13.1785 17.9702 13.0767 17.9499 12.9818 17.9105C12.8869 17.8711 12.8007 17.8134 12.7281 17.7406Z" fill="#22304A"/>
</svg>
