<svg width="25" height="25" viewBox="0 0 25 25" fill="none" xmlns="http://www.w3.org/2000/svg">
<path fill-rule="evenodd" clip-rule="evenodd" d="M7.72558 5.35453C9.13882 4.41024 10.8003 3.90623 12.5 3.90623C14.0085 3.90327 15.491 4.29949 16.7969 5.05466C16.8858 5.11119 16.9852 5.14915 17.0892 5.16625C17.1932 5.18335 17.2995 5.17924 17.4019 5.15417C17.5042 5.1291 17.6004 5.08359 17.6847 5.02038C17.769 4.95716 17.8397 4.87755 17.8924 4.78633C17.9451 4.6951 17.9789 4.59416 17.9916 4.48956C18.0043 4.38496 17.9957 4.27888 17.9663 4.17768C17.937 4.07649 17.8874 3.98228 17.8207 3.90072C17.754 3.81916 17.6715 3.75194 17.5781 3.7031C15.642 2.58526 13.3911 2.13751 11.1745 2.42929C8.95796 2.72107 6.89961 3.73607 5.31869 5.31689C3.73778 6.8977 2.72264 8.95599 2.43072 11.1725C2.13879 13.3891 2.5864 15.64 3.70412 17.5762C4.82184 19.5125 6.5472 21.0258 8.61263 21.8815C10.6781 22.7372 12.9681 22.8875 15.1277 22.3091C17.2873 21.7307 19.1956 20.4558 20.5568 18.6823C21.918 16.9088 22.656 14.7357 22.6563 12.5C22.6563 12.2928 22.574 12.0941 22.4274 11.9475C22.2809 11.801 22.0822 11.7187 21.875 11.7187C21.6678 11.7187 21.4691 11.801 21.3226 11.9475C21.1761 12.0941 21.0938 12.2928 21.0938 12.5C21.0938 14.1997 20.5898 15.8612 19.6455 17.2744C18.7012 18.6876 17.359 19.7891 15.7887 20.4396C14.2184 21.09 12.4905 21.2602 10.8235 20.9286C9.15643 20.597 7.62517 19.7785 6.42332 18.5767C5.22146 17.3748 4.40298 15.8436 4.07139 14.1765C3.7398 12.5095 3.90998 10.7816 4.56043 9.21129C5.21087 7.64099 6.31235 6.29883 7.72558 5.35453ZM24.1605 4.38813C24.1211 4.29321 24.0634 4.207 23.9906 4.13443C23.9181 4.06167 23.8319 4.00395 23.7369 3.96457C23.642 3.92518 23.5403 3.90491 23.4375 3.90491C23.3347 3.90491 23.233 3.92518 23.1381 3.96457C23.0432 4.00395 22.957 4.06167 22.8844 4.13443L12.5 14.5204L8.36564 10.3844C8.293 10.3118 8.20677 10.2542 8.11186 10.2149C8.01695 10.1755 7.91524 10.1553 7.81251 10.1553C7.70979 10.1553 7.60807 10.1755 7.51316 10.2149C7.41826 10.2542 7.33202 10.3118 7.25939 10.3844C7.18675 10.4571 7.12913 10.5433 7.08982 10.6382C7.05051 10.7331 7.03027 10.8348 7.03027 10.9376C7.03027 11.0403 7.05051 11.142 7.08982 11.2369C7.12913 11.3318 7.18675 11.418 7.25939 11.4907L11.9469 16.1782C12.0195 16.2509 12.1057 16.3087 12.2006 16.348C12.2955 16.3874 12.3972 16.4077 12.5 16.4077C12.6028 16.4077 12.7045 16.3874 12.7994 16.348C12.8944 16.3087 12.9806 16.2509 13.0531 16.1782L23.9906 5.24068C24.0634 5.16811 24.1211 5.0819 24.1605 4.98698C24.1999 4.89207 24.2202 4.79032 24.2202 4.68755C24.2202 4.58479 24.1999 4.48304 24.1605 4.38813Z" fill="#22304A"/>
</svg>
