<svg width="23" height="30" viewBox="0 0 23 30" fill="none" xmlns="http://www.w3.org/2000/svg">
<g filter="url(#filter0_d)">
<path fill-rule="evenodd" clip-rule="evenodd" d="M14.9521 7.83209H8.80823C8.53665 7.83209 8.27619 7.93998 8.08416 8.13201C7.89212 8.32405 7.78424 8.5845 7.78424 8.85608V21.1439C7.78424 21.4155 7.89212 21.676 8.08416 21.868C8.27619 22.06 8.53665 22.1679 8.80823 22.1679H14.9521C15.2237 22.1679 15.4842 22.06 15.6762 21.868C15.8682 21.676 15.9761 21.4155 15.9761 21.1439V8.85608C15.9761 8.5845 15.8682 8.32405 15.6762 8.13201C15.4842 7.93998 15.2237 7.83209 14.9521 7.83209ZM8.80823 6.80811C8.26507 6.80811 7.74416 7.02387 7.36009 7.40794C6.97602 7.79201 6.76025 8.31292 6.76025 8.85608V21.1439C6.76025 21.6871 6.97602 22.208 7.36009 22.5921C7.74416 22.9761 8.26507 23.1919 8.80823 23.1919H14.9521C15.4953 23.1919 16.0162 22.9761 16.4003 22.5921C16.7844 22.208 17.0001 21.6871 17.0001 21.1439V8.85608C17.0001 8.31292 16.7844 7.79201 16.4003 7.40794C16.0162 7.02387 15.4953 6.80811 14.9521 6.80811H8.80823ZM11.8802 21.8266C12.0612 21.8266 12.2349 21.7546 12.3629 21.6266C12.4909 21.4986 12.5628 21.325 12.5628 21.1439C12.5628 20.9629 12.4909 20.7892 12.3629 20.6612C12.2349 20.5332 12.0612 20.4613 11.8802 20.4613C11.6991 20.4613 11.5255 20.5332 11.3975 20.6612C11.2694 20.7892 11.1975 20.9629 11.1975 21.1439C11.1975 21.325 11.2694 21.4986 11.3975 21.6266C11.5255 21.7546 11.6991 21.8266 11.8802 21.8266ZM8.8765 8.85608C8.65029 8.85608 8.46691 9.03946 8.46691 9.26567V19.369C8.46691 19.5952 8.65029 19.7786 8.8765 19.7786H14.8839C15.1101 19.7786 15.2935 19.5952 15.2935 19.369V9.26567C15.2935 9.03946 15.1101 8.85608 14.8839 8.85608H8.8765Z" fill="#0FBC00"/>
</g>
<defs>
<filter id="filter0_d" x="0.760254" y="0.808105" width="22.2399" height="28.3838" filterUnits="userSpaceOnUse" color-interpolation-filters="sRGB">
<feFlood flood-opacity="0" result="BackgroundImageFix"/>
<feColorMatrix in="SourceAlpha" type="matrix" values="0 0 0 0 0 0 0 0 0 0 0 0 0 0 0 0 0 0 127 0"/>
<feOffset/>
<feGaussianBlur stdDeviation="3"/>
<feColorMatrix type="matrix" values="0 0 0 0 0.00166678 0 0 0 0 1 0 0 0 0 0.1614 0 0 0 0.55 0"/>
<feBlend mode="normal" in2="BackgroundImageFix" result="effect1_dropShadow"/>
<feBlend mode="normal" in="SourceGraphic" in2="effect1_dropShadow" result="shape"/>
</filter>
</defs>
</svg>
