<svg width="12" height="18" viewBox="0 0 12 18" fill="none" xmlns="http://www.w3.org/2000/svg">
<path fill-rule="evenodd" clip-rule="evenodd" d="M8.95215 1.83209H2.80823C2.53665 1.83209 2.27619 1.93998 2.08416 2.13201C1.89212 2.32405 1.78424 2.5845 1.78424 2.85608V15.1439C1.78424 15.4155 1.89212 15.676 2.08416 15.868C2.27619 16.06 2.53665 16.1679 2.80823 16.1679H8.95215C9.22372 16.1679 9.48418 16.06 9.67621 15.868C9.86825 15.676 9.97613 15.4155 9.97613 15.1439V2.85608C9.97613 2.5845 9.86825 2.32405 9.67621 2.13201C9.48418 1.93998 9.22372 1.83209 8.95215 1.83209ZM2.80823 0.808105C2.26507 0.808105 1.74416 1.02387 1.36009 1.40794C0.976022 1.79201 0.760254 2.31292 0.760254 2.85608V15.1439C0.760254 15.6871 0.976022 16.208 1.36009 16.5921C1.74416 16.9761 2.26507 17.1919 2.80823 17.1919H8.95215C9.4953 17.1919 10.0162 16.9761 10.4003 16.5921C10.7844 16.208 11.0001 15.6871 11.0001 15.1439V2.85608C11.0001 2.31292 10.7844 1.79201 10.4003 1.40794C10.0162 1.02387 9.4953 0.808105 8.95215 0.808105H2.80823ZM5.88018 15.8266C6.06123 15.8266 6.23487 15.7546 6.36289 15.6266C6.49091 15.4986 6.56284 15.325 6.56284 15.1439C6.56284 14.9629 6.49091 14.7892 6.36289 14.6612C6.23487 14.5332 6.06123 14.4613 5.88018 14.4613C5.69913 14.4613 5.52549 14.5332 5.39747 14.6612C5.26944 14.7892 5.19752 14.9629 5.19752 15.1439C5.19752 15.325 5.26944 15.4986 5.39747 15.6266C5.52549 15.7546 5.69913 15.8266 5.88018 15.8266ZM2.8765 2.85608C2.65029 2.85608 2.46691 3.03946 2.46691 3.26567V13.369C2.46691 13.5952 2.65029 13.7786 2.8765 13.7786H8.88389C9.1101 13.7786 9.29348 13.5952 9.29348 13.369V3.26567C9.29348 3.03946 9.1101 2.85608 8.88389 2.85608H2.8765Z" fill="#C4C4C4"/>
</svg>
