<svg width="30" height="25" viewBox="0 0 30 25" fill="none" xmlns="http://www.w3.org/2000/svg">
<g filter="url(#filter0_d)">
<path fill-rule="evenodd" clip-rule="evenodd" d="M21.0498 7.385H8.93992C8.61167 7.385 8.4329 7.46378 8.3319 7.53145C8.22096 7.60869 8.13245 7.71393 8.07536 7.83647C7.98927 8.01435 7.93981 8.20773 7.92992 8.4051V14.455C7.92992 14.7832 8.0087 14.962 8.07637 15.063C8.14707 15.1691 8.24807 15.2529 8.38139 15.3196C8.55161 15.402 8.73608 15.451 8.92477 15.464L8.95002 15.465H21.0599C21.3882 15.465 21.5669 15.3862 21.6679 15.3185C21.7789 15.2413 21.8674 15.1361 21.9245 15.0135C22.0069 14.8433 22.056 14.6588 22.0689 14.4701L22.0699 14.4449V8.395C22.0699 8.06675 21.9911 7.88798 21.9235 7.78698C21.8463 7.676 21.741 7.58748 21.6185 7.53044C21.4406 7.44435 21.2472 7.39489 21.0498 7.385ZM21.0599 6.375H8.93992C6.91992 6.375 6.91992 8.395 6.91992 8.395V14.455C6.91992 16.475 8.93992 16.475 8.93992 16.475H12.9799C12.9799 17.1487 12.8961 17.6537 12.7274 17.99H11.9699C11.836 17.99 11.7075 18.0432 11.6128 18.1379C11.5181 18.2326 11.4649 18.3611 11.4649 18.495C11.4649 18.6289 11.5181 18.7574 11.6128 18.8521C11.7075 18.9468 11.836 19 11.9699 19H18.0299C18.1639 19 18.2923 18.9468 18.387 18.8521C18.4817 18.7574 18.5349 18.6289 18.5349 18.495C18.5349 18.3611 18.4817 18.2326 18.387 18.1379C18.2923 18.0432 18.1639 17.99 18.0299 17.99H17.2724C17.1038 17.6537 17.0199 17.1487 17.0199 16.475H21.0599C23.0799 16.475 23.0799 14.455 23.0799 14.455V8.395C23.0799 6.375 21.0599 6.375 21.0599 6.375ZM21.0599 8.395H8.93992V14.455H21.0599V8.395Z" fill="#0FBC00"/>
</g>
<defs>
<filter id="filter0_d" x="0.919922" y="0.375" width="28.16" height="24.625" filterUnits="userSpaceOnUse" color-interpolation-filters="sRGB">
<feFlood flood-opacity="0" result="BackgroundImageFix"/>
<feColorMatrix in="SourceAlpha" type="matrix" values="0 0 0 0 0 0 0 0 0 0 0 0 0 0 0 0 0 0 127 0"/>
<feOffset/>
<feGaussianBlur stdDeviation="3"/>
<feColorMatrix type="matrix" values="0 0 0 0 0.00166678 0 0 0 0 1 0 0 0 0 0.1614 0 0 0 0.55 0"/>
<feBlend mode="normal" in2="BackgroundImageFix" result="effect1_dropShadow"/>
<feBlend mode="normal" in="SourceGraphic" in2="effect1_dropShadow" result="shape"/>
</filter>
</defs>
</svg>
