<svg width="18" height="13" viewBox="0 0 18 13" fill="none" xmlns="http://www.w3.org/2000/svg">
<path fill-rule="evenodd" clip-rule="evenodd" d="M15.0498 1.385H2.93992C2.61167 1.385 2.4329 1.46378 2.3319 1.53145C2.22096 1.60869 2.13245 1.71393 2.07536 1.83647C1.98927 2.01435 1.93981 2.20773 1.92992 2.4051V8.455C1.92992 8.78325 2.0087 8.96202 2.07637 9.06302C2.14707 9.16907 2.24807 9.2529 2.38139 9.31956C2.55161 9.40201 2.73608 9.45104 2.92477 9.46399L2.95002 9.465H15.0599C15.3882 9.465 15.5669 9.38622 15.6679 9.31855C15.7789 9.24131 15.8674 9.13607 15.9245 9.01353C16.0069 8.84331 16.056 8.65885 16.0689 8.47015L16.0699 8.4449V2.395C16.0699 2.06675 15.9911 1.88798 15.9235 1.78698C15.8463 1.676 15.741 1.58748 15.6185 1.53044C15.4406 1.44435 15.2472 1.39489 15.0498 1.385ZM15.0599 0.375H2.93992C0.919922 0.375 0.919922 2.395 0.919922 2.395V8.455C0.919922 10.475 2.93992 10.475 2.93992 10.475H6.97992C6.97992 11.1487 6.89609 11.6537 6.72742 11.99H5.96992C5.83599 11.99 5.70754 12.0432 5.61283 12.1379C5.51813 12.2326 5.46492 12.3611 5.46492 12.495C5.46492 12.6289 5.51813 12.7574 5.61283 12.8521C5.70754 12.9468 5.83599 13 5.96992 13H12.0299C12.1639 13 12.2923 12.9468 12.387 12.8521C12.4817 12.7574 12.5349 12.6289 12.5349 12.495C12.5349 12.3611 12.4817 12.2326 12.387 12.1379C12.2923 12.0432 12.1639 11.99 12.0299 11.99H11.2724C11.1038 11.6537 11.0199 11.1487 11.0199 10.475H15.0599C17.0799 10.475 17.0799 8.455 17.0799 8.455V2.395C17.0799 0.375 15.0599 0.375 15.0599 0.375ZM15.0599 2.395H2.93992V8.455H15.0599V2.395Z" fill="#C4C4C4"/>
</svg>
