<svg width="26" height="30" viewBox="0 0 26 30" fill="none" xmlns="http://www.w3.org/2000/svg">
<g filter="url(#filter0_d)">
<path fill-rule="evenodd" clip-rule="evenodd" d="M18.4563 7.86001H7.91293C7.5932 7.86001 7.33401 8.1192 7.33401 8.43893V21.5611C7.33401 21.8809 7.5932 22.14 7.91293 22.14H18.4563C18.776 22.14 19.0352 21.8809 19.0352 21.5611V8.43893C19.0352 8.1192 18.776 7.86001 18.4563 7.86001ZM7.91293 6.89514C7.06032 6.89514 6.36914 7.58632 6.36914 8.43893V21.5611C6.36914 22.4137 7.06032 23.1049 7.91293 23.1049H18.4563C19.3089 23.1049 20.0001 22.4137 20.0001 21.5611V8.43893C20.0001 7.58632 19.3089 6.89514 18.4563 6.89514H7.91293ZM8.21122 9.50901C8.21122 9.08271 8.55681 8.73712 8.98311 8.73712H17.3862C17.8125 8.73712 18.1581 9.08271 18.1581 9.50901V19.0173C18.1581 19.4436 17.8125 19.7892 17.3862 19.7892H8.98311C8.55681 19.7892 8.21122 19.4436 8.21122 19.0173V9.50901ZM13.3686 21.6312C13.7755 21.6312 14.1054 21.3013 14.1054 20.8944C14.1054 20.4874 13.7755 20.1576 13.3686 20.1576C12.9617 20.1576 12.6318 20.4874 12.6318 20.8944C12.6318 21.3013 12.9617 21.6312 13.3686 21.6312Z" fill="#0FBC00"/>
</g>
<defs>
<filter id="filter0_d" x="0.369141" y="0.895142" width="25.6309" height="28.2098" filterUnits="userSpaceOnUse" color-interpolation-filters="sRGB">
<feFlood flood-opacity="0" result="BackgroundImageFix"/>
<feColorMatrix in="SourceAlpha" type="matrix" values="0 0 0 0 0 0 0 0 0 0 0 0 0 0 0 0 0 0 127 0"/>
<feOffset/>
<feGaussianBlur stdDeviation="3"/>
<feColorMatrix type="matrix" values="0 0 0 0 0.00166678 0 0 0 0 1 0 0 0 0 0.1614 0 0 0 0.55 0"/>
<feBlend mode="normal" in2="BackgroundImageFix" result="effect1_dropShadow"/>
<feBlend mode="normal" in="SourceGraphic" in2="effect1_dropShadow" result="shape"/>
</filter>
</defs>
</svg>
