<svg width="14" height="18" viewBox="0 0 14 18" fill="none" xmlns="http://www.w3.org/2000/svg">
<path fill-rule="evenodd" clip-rule="evenodd" d="M12.4563 1.86001H1.91293C1.5932 1.86001 1.33401 2.1192 1.33401 2.43893V15.5611C1.33401 15.8809 1.5932 16.14 1.91293 16.14H12.4563C12.776 16.14 13.0352 15.8809 13.0352 15.5611V2.43893C13.0352 2.1192 12.776 1.86001 12.4563 1.86001ZM1.91293 0.895142C1.06032 0.895142 0.369141 1.58632 0.369141 2.43893V15.5611C0.369141 16.4137 1.06032 17.1049 1.91293 17.1049H12.4563C13.3089 17.1049 14.0001 16.4137 14.0001 15.5611V2.43893C14.0001 1.58632 13.3089 0.895142 12.4563 0.895142H1.91293ZM2.21122 3.50901C2.21122 3.08271 2.55681 2.73712 2.98311 2.73712H11.3862C11.8125 2.73712 12.1581 3.08271 12.1581 3.50901V13.0173C12.1581 13.4436 11.8125 13.7892 11.3862 13.7892H2.98311C2.55681 13.7892 2.21122 13.4436 2.21122 13.0173V3.50901ZM7.36861 15.6312C7.77554 15.6312 8.10542 15.3013 8.10542 14.8944C8.10542 14.4874 7.77554 14.1576 7.36861 14.1576C6.96168 14.1576 6.6318 14.4874 6.6318 14.8944C6.6318 15.3013 6.96168 15.6312 7.36861 15.6312Z" fill="#C4C4C4"/>
</svg>
