<svg width="12" height="14" viewBox="0 0 12 14" fill="none" xmlns="http://www.w3.org/2000/svg">
<path d="M1.67422 2.84398C1.28436 3.13337 1.28436 3.71697 1.67422 4.00637L5.31158 6.70641C5.78919 7.06095 6.46683 6.72003 6.46683 6.12522V4.13012C6.55342 4.11614 6.64527 4.11898 6.73979 4.14194C8.65173 4.60628 10.087 6.33383 10.0998 8.37935C10.107 9.53666 9.66309 10.6222 8.84967 11.4357C8.03626 12.2491 6.95106 12.693 5.79337 12.6858C4.38141 12.677 3.07965 11.9927 2.26502 10.8637C2.05486 10.5725 1.66685 10.4436 1.34705 10.607C1.02391 10.7722 0.894229 11.1715 1.09744 11.4722C1.30338 11.7769 1.53791 12.061 1.7976 12.3207C2.10422 12.6274 2.44566 12.8999 2.81608 13.1318C3.71259 13.6932 4.74492 13.9933 5.80156 13.9999C7.31024 14.0095 8.72485 13.4309 9.78491 12.3709C10.845 11.3108 11.4235 9.89622 11.4141 8.38773C11.3966 5.57974 9.32188 3.23111 6.63089 2.78253C6.57477 2.77318 6.51991 2.75939 6.46683 2.74153V0.725129C6.46683 0.130313 5.78919 -0.210602 5.31158 0.143932L1.67422 2.84398Z" fill="#C4C4C4"/>
</svg>
