<svg width="23" height="23" viewBox="0 0 23 23" fill="none" xmlns="http://www.w3.org/2000/svg">
<path fill-rule="evenodd" clip-rule="evenodd" d="M16.8183 2.91183C17.6441 2.08603 18.983 2.08603 19.8088 2.91183C20.6346 3.73764 20.6346 5.07653 19.8088 5.90233L16.11 9.60109L16.5822 10.0732C17.0168 10.5079 17.0168 11.2126 16.5822 11.6472C16.1476 12.0818 15.4429 12.0818 15.0083 11.6472L13.049 9.68791L13.0408 9.67981L13.0327 9.67167L10.916 7.55493C10.4814 7.12029 10.4814 6.41561 10.916 5.98098C11.3506 5.54635 12.0553 5.54635 12.4899 5.98098L13.1195 6.61059L16.8183 2.91183ZM12.5686 10.1519L13.7491 11.3324L12.5686 12.5129L12.0177 13.0637L6.43022 18.6513C6.28351 18.798 6.11628 18.9117 5.93777 18.9924C5.90827 19.0117 5.87573 19.028 5.84028 19.0406L3.37523 19.9136C3.02218 20.0386 2.68194 19.6984 2.80697 19.3453L3.67997 16.8803C3.69252 16.8448 3.70883 16.8123 3.72821 16.7828C3.80889 16.6043 3.92259 16.437 4.0693 16.2903L9.65682 10.7028L10.2077 10.1519L11.3882 8.97148L12.5686 10.1519Z" fill="#22304A"/>
</svg>
